<svg width="25" height="24" viewBox="0 0 25 24" fill="none" xmlns="http://www.w3.org/2000/svg">
<path d="M12.25 22C14.2278 22 16.1612 21.4135 17.8057 20.3147C19.4502 19.2159 20.7319 17.6541 21.4888 15.8268C22.2457 13.9996 22.4437 11.9889 22.0579 10.0491C21.672 8.10929 20.7196 6.32746 19.3211 4.92894C17.9225 3.53041 16.1407 2.578 14.2009 2.19215C12.2611 1.8063 10.2504 2.00433 8.42317 2.76121C6.5959 3.51809 5.03412 4.79981 3.9353 6.4443C2.83649 8.08879 2.25 10.0222 2.25 12C2.25765 14.6498 3.31368 17.1889 5.18738 19.0626C7.06109 20.9363 9.60019 21.9924 12.25 22V22Z" stroke="#1C468E" stroke-width="1.5" stroke-linecap="round" stroke-linejoin="round"/>
<path d="M8.25 12H16.25" stroke="#1C468E" stroke-width="1.5" stroke-linecap="round" stroke-linejoin="round"/>
<path d="M12.25 16V8" stroke="#1C468E" stroke-width="1.5" stroke-linecap="round" stroke-linejoin="round"/>
</svg>
