<svg width="25" height="24" viewBox="0 0 25 24" fill="none" xmlns="http://www.w3.org/2000/svg">
<path d="M21.9766 7V17C21.9766 20 20.4766 22 16.9766 22H8.97656C5.47656 22 3.97656 20 3.97656 17V7C3.97656 4 5.47656 2 8.97656 2H16.9766C20.4766 2 21.9766 4 21.9766 7Z" stroke="#1D484D" stroke-width="1.5" stroke-linecap="round" stroke-linejoin="round"/>
<path d="M16.4785 2V9.86C16.4792 9.95758 16.4513 10.0532 16.3983 10.1351C16.3452 10.217 16.2694 10.2816 16.1801 10.321C16.0908 10.3603 15.9919 10.3727 15.8957 10.3565C15.7995 10.3403 15.7101 10.2964 15.6385 10.23L13.3185 8.09C13.2261 8.00425 13.1046 7.95661 12.9785 7.95661C12.8524 7.95661 12.731 8.00425 12.6385 8.09L10.3185 10.23C10.247 10.2964 10.1576 10.3403 10.0614 10.3565C9.96512 10.3727 9.86626 10.3603 9.77696 10.321C9.68766 10.2816 9.61182 10.217 9.55879 10.1351C9.50576 10.0532 9.47786 9.95758 9.47853 9.86V2H16.4785Z" stroke="#1D484D" stroke-width="1.5" stroke-linecap="round" stroke-linejoin="round"/>
<path d="M14.2246 14H18.4746" stroke="#1D484D" stroke-width="1.5" stroke-linecap="round" stroke-linejoin="round"/>
<path d="M9.97656 18H18.4766" stroke="#1D484D" stroke-width="1.5" stroke-linecap="round" stroke-linejoin="round"/>
</svg>
