<svg width="683" height="528" viewBox="0 0 683 528" fill="none" xmlns="http://www.w3.org/2000/svg">
<path d="M900 373.51H373.51V900H900V373.51Z" fill="#385723"/>
<path d="M105.298 900C105.298 864.778 112.236 829.901 125.715 797.36C139.194 764.819 158.95 735.251 183.856 710.345C208.762 685.44 238.329 665.683 270.87 652.204C303.411 638.726 338.288 631.788 373.51 631.788V747.067C353.427 747.067 333.54 751.022 314.985 758.708C296.43 766.394 279.571 777.659 265.37 791.86C251.169 806.061 239.904 822.92 232.218 841.475C224.533 860.03 220.577 879.916 220.577 900H105.298Z" fill="#EEF7EB"/>
<path d="M747.02 373.51C747.02 393.6 750.977 413.493 758.665 432.053C766.353 450.613 777.621 467.478 791.827 481.683C806.032 495.889 822.896 507.157 841.457 514.845C860.017 522.533 879.91 526.49 900 526.49L900 373.51L747.02 373.51Z" fill="#EEF7EB"/>
<path d="M373.51 373.51C353.421 373.51 333.528 369.553 314.967 361.865C296.407 354.177 279.542 342.909 265.337 328.703C251.131 314.498 239.863 297.633 232.175 279.073C224.487 260.512 220.53 240.619 220.53 220.53H373.51L373.51 373.51Z" fill="#FFCD1C"/>
<path d="M373.51 373.51C393.6 373.51 413.493 369.553 432.053 361.865C450.614 354.177 467.478 342.909 481.684 328.703C495.889 314.498 507.157 297.633 514.845 279.073C522.533 260.512 526.49 240.619 526.49 220.53H373.51L373.51 373.51Z" fill="#385723"/>
<path d="M220.53 900C220.53 879.91 224.487 860.017 232.175 841.457C239.863 822.896 251.132 806.032 265.337 791.826C279.543 777.621 296.407 766.352 314.967 758.664C333.528 750.976 353.421 747.019 373.51 747.019L373.51 900L220.53 900Z" fill="#FFCD1C"/>
<path d="M526.49 900C526.49 879.91 522.533 860.017 514.845 841.457C507.157 822.896 495.889 806.032 481.683 791.826C467.478 777.621 450.613 766.352 432.053 758.664C413.493 750.976 393.6 747.019 373.51 747.019L373.51 900L526.49 900Z" fill="#98DB82"/>
<path d="M526.49 373.51C526.49 393.6 522.533 413.493 514.845 432.053C507.157 450.613 495.889 467.478 481.683 481.683C467.478 495.889 450.613 507.157 432.053 514.845C413.493 522.533 393.6 526.49 373.51 526.49L373.51 373.51L526.49 373.51Z" fill="#52AE32"/>
<path d="M526.49 373.51C526.49 324.46 536.151 275.89 554.922 230.574C573.692 185.258 601.205 144.082 635.889 109.399C670.572 74.7149 711.748 47.2024 757.064 28.4317C802.38 9.66111 850.95 -2.14404e-06 900 0L900 118.158C866.467 118.158 833.262 124.763 802.281 137.596C771.3 150.428 743.151 169.237 719.439 192.949C695.727 216.661 676.918 244.81 664.086 275.791C651.253 306.772 644.648 339.977 644.648 373.51L526.49 373.51Z" fill="#98DB81"/>
<path d="M641.722 373.51C641.722 339.592 648.403 306.007 661.382 274.671C674.362 243.335 693.387 214.863 717.37 190.879C741.353 166.896 769.826 147.872 801.161 134.892C832.497 121.912 866.082 115.232 900 115.232L900 220.256C879.874 220.256 859.946 224.22 841.352 231.921C822.759 239.623 805.864 250.912 791.633 265.143C777.402 279.374 766.113 296.268 758.412 314.862C750.71 333.456 746.746 353.384 746.746 373.51H641.722Z" fill="#385723"/>
<path d="M900 631.788C866.082 631.788 832.497 625.107 801.161 612.128C769.825 599.148 741.353 580.123 717.37 556.14C693.386 532.157 674.362 503.684 661.382 472.348C648.402 441.013 641.722 407.427 641.722 373.51H747.409C747.409 393.548 751.356 413.39 759.025 431.904C766.693 450.417 777.933 467.238 792.102 481.408C806.271 495.577 823.093 506.817 841.606 514.485C860.119 522.154 879.961 526.1 900 526.1L900 631.788Z" fill="#98DB82"/>
<path d="M631.788 900C631.788 866.082 625.107 832.497 612.128 801.161C599.148 769.825 580.123 741.353 556.14 717.37C532.157 693.386 503.684 674.362 472.348 661.382C441.013 648.402 407.427 641.722 373.51 641.722V746.746C393.635 746.746 413.564 750.71 432.158 758.411C450.751 766.113 467.646 777.402 481.877 791.633C496.108 805.864 507.396 822.758 515.098 841.352C522.8 859.946 526.764 879.874 526.764 900H631.788Z" fill="#EEF7EB"/>
<path d="M220.53 373.51C220.53 393.6 224.487 413.493 232.175 432.053C239.863 450.613 251.132 467.478 265.337 481.683C279.543 495.889 296.407 507.157 314.967 514.845C333.528 522.533 353.42 526.49 373.51 526.49L373.51 373.51L220.53 373.51Z" fill="#98DB82"/>
<path d="M115.232 373.51C115.232 407.427 121.913 441.013 134.892 472.349C147.872 503.684 166.896 532.157 190.88 556.14C214.863 580.123 243.336 599.148 274.671 612.128C306.007 625.107 339.593 631.788 373.51 631.788L373.51 526.764C353.384 526.764 333.456 522.8 314.862 515.098C296.269 507.396 279.374 496.108 265.143 481.877C250.912 467.646 239.623 450.751 231.922 432.158C224.22 413.564 220.256 393.636 220.256 373.51H115.232Z" fill="#FFCD1C"/>
<path d="M747.02 373.51C747.02 422.56 737.359 471.129 718.588 516.446C699.817 561.762 672.305 602.937 637.621 637.621C602.938 672.305 561.762 699.817 516.446 718.588C471.13 737.358 422.56 747.019 373.51 747.019L373.51 641.694C408.729 641.694 443.602 634.757 476.14 621.28C508.677 607.802 538.242 588.048 563.145 563.144C588.048 538.241 607.802 508.677 621.28 476.139C634.757 443.602 641.694 408.728 641.694 373.51L747.02 373.51Z" fill="#98DB81"/>
<path d="M641.722 373.51C641.722 408.732 634.784 443.609 621.305 476.15C607.827 508.691 588.07 538.258 563.164 563.164C538.259 588.07 508.691 607.826 476.15 621.305C443.609 634.784 408.732 641.722 373.51 641.722L373.51 526.443C393.594 526.443 413.48 522.487 432.035 514.802C450.59 507.116 467.449 495.851 481.65 481.65C495.851 467.449 507.116 450.589 514.802 432.035C522.487 413.48 526.443 393.593 526.443 373.51L641.722 373.51Z" fill="#385723"/>
<path d="M0 900C0 850.95 9.66113 802.38 28.4318 757.064C47.2024 711.748 74.7149 670.572 109.398 635.889C144.082 601.205 185.258 573.693 230.574 554.922C275.89 536.151 324.46 526.49 373.51 526.49L373.51 641.562C339.571 641.562 305.965 648.247 274.61 661.234C243.255 674.222 214.765 693.258 190.766 717.257C166.768 741.255 147.732 769.745 134.744 801.1C121.756 832.455 115.072 866.061 115.072 900H0Z" fill="#385723"/>
</svg>
