<svg width="52" height="52" viewBox="0 0 52 52" fill="none" xmlns="http://www.w3.org/2000/svg">
<path d="M26.0007 47.6668C30.2859 47.6668 34.4749 46.3961 38.038 44.0153C41.6011 41.6346 44.3781 38.2507 46.018 34.2916C47.6579 30.3326 48.087 25.9761 47.251 21.7732C46.415 17.5703 44.3514 13.7097 41.3213 10.6795C38.2912 7.64939 34.4305 5.58584 30.2276 4.74982C26.0247 3.91381 21.6682 4.34288 17.7092 5.98278C13.7501 7.62268 10.3662 10.3998 7.98548 13.9628C5.60471 17.5259 4.33398 21.7149 4.33398 26.0002C4.35056 31.7414 6.63862 37.2428 10.6983 41.3025C14.758 45.3622 20.2594 47.6503 26.0007 47.6668V47.6668Z" stroke="#1C468E" stroke-width="3.25" stroke-linecap="round" stroke-linejoin="round"/>
<path d="M16.791 25.9998L22.9227 32.1315L35.2077 19.8682" stroke="#1C468E" stroke-width="3.25" stroke-linecap="round" stroke-linejoin="round"/>
</svg>
