<svg  width="50" height="50" viewBox="0 0 24.00 24.00" fill="none" xmlns="http://www.w3.org/2000/svg" stroke="#ff0000" stroke-width="0.00024000000000000003">

<g id="SVGRepo_bgCarrier" stroke-width="0"/>

<g id="SVGRepo_tracerCarrier" stroke-linecap="round" stroke-linejoin="round" stroke="#CCCCCC" stroke-width="0.048"/>

<g id="SVGRepo_iconCarrier">

<path d="M12 4a8 8 0 1 0 0 16 8 8 0 0 0 0-16zM2 12C2 6.477 6.477 2 12 2s10 4.477 10 10-4.477 10-10 10S2 17.523 2 12zm5.793-4.207a1 1 0 0 1 1.414 0L12 10.586l2.793-2.793a1 1 0 1 1 1.414 1.414L13.414 12l2.793 2.793a1 1 0 0 1-1.414 1.414L12 13.414l-2.793 2.793a1 1 0 0 1-1.414-1.414L10.586 12 7.793 9.207a1 1 0 0 1 0-1.414z" fill="#ff0000"/>

</g>

</svg>