<svg width="48" height="48" viewBox="0 0 48 48" fill="none" xmlns="http://www.w3.org/2000/svg">
<path d="M23.9997 45.6668C28.2849 45.6668 32.474 44.3961 36.037 42.0153C39.6001 39.6346 42.3772 36.2507 44.0171 32.2916C45.657 28.3326 46.086 23.9761 45.25 19.7732C44.414 15.5703 42.3505 11.7097 39.3203 8.67953C36.2902 5.64939 32.4296 3.58584 28.2266 2.74982C24.0237 1.91381 19.6673 2.34288 15.7082 3.98278C11.7491 5.62268 8.36526 8.39975 5.9845 11.9628C3.60374 15.5259 2.33301 19.7149 2.33301 24.0002C2.34959 29.7414 4.63764 35.2428 8.69734 39.3025C12.757 43.3622 18.2584 45.6503 23.9997 45.6668V45.6668Z" stroke="#EB3F25" stroke-width="3.25" stroke-linecap="round" stroke-linejoin="round"/>
</svg>
