<svg width="24" height="24" viewBox="0 0 24 24" fill="none" xmlns="http://www.w3.org/2000/svg">
<path d="M12 8V2L10 4" stroke="white" stroke-width="1.5" stroke-linecap="round" stroke-linejoin="round"/>
<path d="M12 2L14 4" stroke="white" stroke-width="1.5" stroke-linecap="round" stroke-linejoin="round"/>
<path d="M7 12.0002C3 12.0002 3 13.7902 3 16.0002V17.0002C3 19.7602 3 22.0002 8 22.0002H16C20 22.0002 21 19.7602 21 17.0002V16.0002C21 13.7902 21 12.0002 17 12.0002C16.6748 11.9702 16.3469 12.0081 16.0371 12.1114C15.7272 12.2147 15.4422 12.3811 15.2 12.6002L14.18 13.6802C13.8995 13.9783 13.5609 14.2159 13.1852 14.3783C12.8094 14.5407 12.4044 14.6245 11.995 14.6245C11.5856 14.6245 11.1806 14.5407 10.8048 14.3783C10.4291 14.2159 10.0905 13.9783 9.81 13.6802L8.8 12.6002C8.55778 12.3811 8.27275 12.2147 7.96292 12.1114C7.6531 12.0081 7.32521 11.9702 7 12.0002V12.0002Z" stroke="white" stroke-width="1.5" stroke-linecap="round" stroke-linejoin="round"/>
<path d="M5 12V10C5 7.99004 5 6.33004 8 6.04004" stroke="white" stroke-width="1.5" stroke-linecap="round" stroke-linejoin="round"/>
<path d="M19 12V10C19 7.99004 19 6.33004 16 6.04004" stroke="white" stroke-width="1.5" stroke-linecap="round" stroke-linejoin="round"/>
</svg>
