<svg width="24" height="24" viewBox="0 0 24 24" fill="none" xmlns="http://www.w3.org/2000/svg">
<g id="Left Icons">
<g id="export">
<path id="Vector" d="M14.6797 17.4986L12.1197 20.0586L9.55969 17.4986" stroke="white" stroke-width="1.5" stroke-linecap="round" stroke-linejoin="round"/>
<path id="Vector_2" d="M12.1201 9.81828L12.1201 19.9883" stroke="white" stroke-width="1.5" stroke-linecap="round" stroke-linejoin="round"/>
<path id="Vector_3" d="M20.0004 12C20.0502 10.9362 19.8773 9.87378 19.4929 8.88066C19.1084 7.88753 18.5209 6.9856 17.7679 6.23258C17.0148 5.47955 16.1129 4.89202 15.1198 4.50758C14.1267 4.12314 13.0642 3.95026 12.0004 4C10.9367 3.95026 9.87422 4.12314 8.8811 4.50758C7.88797 4.89202 6.98604 5.47955 6.23301 6.23258C5.47999 6.9856 4.89246 7.88753 4.50802 8.88066C4.12358 9.87378 3.9507 10.9362 4.00044 12" stroke="white" stroke-width="1.5" stroke-linecap="round" stroke-linejoin="round"/>
</g>
</g>
</svg>
