<svg width="24" height="24" viewBox="0 0 24 24" fill="none" xmlns="http://www.w3.org/2000/svg">
<g id="export">
<path id="Vector" d="M9.32031 6.50043L11.8803 3.94043L14.4403 6.50043" stroke="white" stroke-width="1.5" stroke-linecap="round" stroke-linejoin="round"/>
<path id="Vector_2" d="M11.8809 14.1798V4.00977" stroke="white" stroke-width="1.5" stroke-linecap="round" stroke-linejoin="round"/>
<path id="Vector_3" d="M4.00054 12C3.9508 13.0638 4.12368 14.1262 4.50812 15.1193C4.89256 16.1125 5.48009 17.0144 6.23311 17.7674C6.98614 18.5204 7.88807 19.108 8.8812 19.4924C9.87432 19.8769 10.9368 20.0497 12.0005 20C13.0643 20.0497 14.1268 19.8769 15.1199 19.4924C16.113 19.108 17.0149 18.5204 17.768 17.7674C18.521 17.0144 19.1085 16.1125 19.493 15.1193C19.8774 14.1262 20.0503 13.0638 20.0005 12" stroke="white" stroke-width="1.5" stroke-linecap="round" stroke-linejoin="round"/>
</g>
</svg>
