<svg width="24" height="24" viewBox="0 0 24 24" fill="none" xmlns="http://www.w3.org/2000/svg">
<g id="eye">
<path id="Vector" d="M15.5799 11.9999C15.5799 12.708 15.37 13.4001 14.9766 13.9889C14.5832 14.5776 14.0241 15.0365 13.3699 15.3074C12.7158 15.5784 11.996 15.6493 11.3015 15.5111C10.607 15.373 9.96915 15.032 9.46848 14.5314C8.96781 14.0307 8.62685 13.3928 8.48871 12.6983C8.35058 12.0039 8.42147 11.2841 8.69243 10.6299C8.9634 9.97576 9.42225 9.41664 10.011 9.02326C10.5997 8.62989 11.2919 8.41992 11.9999 8.41992C12.4702 8.4194 12.936 8.51164 13.3706 8.69136C13.8051 8.87109 14.2 9.13477 14.5325 9.46731C14.8651 9.79985 15.1288 10.1947 15.3085 10.6293C15.4882 11.0639 15.5804 11.5296 15.5799 11.9999V11.9999Z" stroke="black" stroke-width="1.5" stroke-linecap="round" stroke-linejoin="round"/>
<path id="Vector_2" d="M11.9998 20.2707C15.5298 20.2707 18.8198 18.1907 21.1098 14.5907C21.5524 13.7974 21.7847 12.9041 21.7847 11.9957C21.7847 11.0873 21.5524 10.194 21.1098 9.4007C18.8148 5.8007 15.5298 3.7207 11.9998 3.7207C8.46979 3.7207 5.1798 5.8007 2.8898 9.4007C2.44719 10.194 2.21484 11.0873 2.21484 11.9957C2.21484 12.9041 2.44719 13.7974 2.8898 14.5907C5.1798 18.1907 8.46979 20.2707 11.9998 20.2707Z" stroke="#1D1D1B" stroke-width="1.5" stroke-linecap="round" stroke-linejoin="round"/>
</g>
</svg>
