<svg width="52" height="52" viewBox="0 0 52 52" fill="none" xmlns="http://www.w3.org/2000/svg">
<path d="M26.0007 47.6664C30.2859 47.6664 34.4749 46.3956 38.038 44.0149C41.6011 41.6341 44.3781 38.2502 46.018 34.2912C47.6579 30.3321 48.087 25.9757 47.251 21.7727C46.415 17.5698 44.3514 13.7092 41.3213 10.679C38.2912 7.6489 34.4305 5.58535 30.2276 4.74934C26.0247 3.91332 21.6682 4.3424 17.7092 5.98229C13.7501 7.62219 10.3662 10.3993 7.98548 13.9623C5.60471 17.5254 4.33398 21.7144 4.33398 25.9997C4.35056 31.7409 6.63862 37.2423 10.6983 41.302C14.758 45.3617 20.2594 47.6498 26.0007 47.6664V47.6664Z" stroke="#EB3F25" stroke-width="3.25" stroke-linecap="round" stroke-linejoin="round"/>
<path d="M19.9999 33L33 20" stroke="#EB3F25" stroke-width="3.25" stroke-linecap="round" stroke-linejoin="round"/>
<path d="M33 33.0001L20 20" stroke="#EB3F25" stroke-width="3.25" stroke-linecap="round" stroke-linejoin="round"/>
</svg>
