<svg width="52" height="52" viewBox="0 0 52 52" fill="none" xmlns="http://www.w3.org/2000/svg">
<path d="M26.0007 47.6667C30.2859 47.6667 34.4749 46.3959 38.038 44.0152C41.6011 41.6344 44.3781 38.2505 46.018 34.2915C47.6579 30.3324 48.087 25.976 47.251 21.773C46.415 17.5701 44.3514 13.7095 41.3213 10.6793C38.2912 7.6492 34.4305 5.58565 30.2276 4.74964C26.0247 3.91363 21.6682 4.3427 17.7092 5.9826C13.7501 7.6225 10.3662 10.3996 7.98548 13.9626C5.60471 17.5257 4.33398 21.7147 4.33398 26C4.35056 31.7413 6.63862 37.2426 10.6983 41.3023C14.758 45.362 20.2594 47.6501 26.0007 47.6667V47.6667Z" stroke="#EB3F25" stroke-width="3.25" stroke-linecap="round" stroke-linejoin="round"/>
<path d="M19.9999 33L33 20" stroke="#EB3F25" stroke-width="3.25" stroke-linecap="round" stroke-linejoin="round"/>
<path d="M33 33.0001L20 20" stroke="#EB3F25" stroke-width="3.25" stroke-linecap="round" stroke-linejoin="round"/>
</svg>
