<svg width="32" height="32" viewBox="0 0 32 32" fill="none" xmlns="http://www.w3.org/2000/svg">
<rect width="32" height="32" fill="#1E1E1E"/>
<g id="Admin Login">
<path d="M-2484 -1816C-2484 -1817.1 -2483.1 -1818 -2482 -1818H11561C11562.1 -1818 11563 -1817.1 11563 -1816V46140C11563 46141.1 11562.1 46142 11561 46142H-2482C-2483.1 46142 -2484 46141.1 -2484 46140V-1816Z" fill="#404040"/>
<path d="M-2482 -1817H11561V-1819H-2482V-1817ZM11562 -1816V46140H11564V-1816H11562ZM11561 46141H-2482V46143H11561V46141ZM-2483 46140V-1816H-2485V46140H-2483ZM-2482 46141C-2482.55 46141 -2483 46140.6 -2483 46140H-2485C-2485 46141.7 -2483.66 46143 -2482 46143V46141ZM11562 46140C11562 46140.6 11561.6 46141 11561 46141V46143C11562.7 46143 11564 46141.7 11564 46140H11562ZM11561 -1817C11561.6 -1817 11562 -1816.55 11562 -1816H11564C11564 -1817.66 11562.7 -1819 11561 -1819V-1817ZM-2482 -1819C-2483.66 -1819 -2485 -1817.66 -2485 -1816H-2483C-2483 -1816.55 -2482.55 -1817 -2482 -1817V-1819Z" fill="white" fill-opacity="0.1"/>
<g id="Dashboard" clip-path="url(#clip0_0_1)">
<rect width="1440" height="815" transform="translate(-1226 -23)" fill="white"/>
<g id="Frame 1000005566">
<g id="Group 1000005388">
<g id="Frame 6172461">
<g id="Profile">
<g id="Group 1000005383">
<circle id="Ellipse 45" cx="16" cy="16" r="16" fill="#52AE32"/>
<path id="Intersect" fill-rule="evenodd" clip-rule="evenodd" d="M1.15963 10.0078C12.7101 10.3027 22.3348 18.3193 25.1649 29.1161C22.5691 30.9332 19.4091 31.9994 16 31.9994C14.7766 31.9994 13.5853 31.8621 12.4406 31.6021C10.8703 26.9352 6.68241 23.4893 1.62797 23.0393C0.585411 20.9149 0 18.5255 0 15.9994C0 13.8808 0.411765 11.8584 1.15963 10.0078Z" fill="white" fill-opacity="0.4"/>
<path id="Intersect_2" fill-rule="evenodd" clip-rule="evenodd" d="M15.8086 0.00114184C15.8729 0.000381323 15.9373 0 16.0017 0C17.6685 0 19.2757 0.254852 20.7865 0.727713C20.3519 2.7606 21.2346 4.91927 23.1233 6.00968C24.8064 6.98142 26.8248 6.83706 28.3364 5.80834C29.4036 7.09842 30.2722 8.55872 30.8956 10.1424C27.8658 12.0734 23.9079 12.2998 20.5957 10.3875C16.8698 8.23638 15.0792 4.02458 15.8086 0.00114184Z" fill="white" fill-opacity="0.4"/>
</g>
</g>
</g>
</g>
</g>
</g>
</g>
<defs>
<clipPath id="clip0_0_1">
<rect width="1440" height="815" fill="white" transform="translate(-1226 -23)"/>
</clipPath>
</defs>
</svg>
