<svg width="25" height="24" viewBox="0 0 25 24" fill="none" xmlns="http://www.w3.org/2000/svg">
<g id="vuesax/linear/global">
<g id="global">
<path id="Vector" d="M12.1199 22C17.6982 22 22.2203 17.5228 22.2203 12C22.2203 6.47715 17.6982 2 12.1199 2C6.54162 2 2.01953 6.47715 2.01953 12C2.01953 17.5228 6.54162 22 12.1199 22Z" stroke="#385723" stroke-width="1.5" stroke-linecap="round" stroke-linejoin="round"/>
<path id="Vector_2" d="M8.08042 3H9.09046C7.12089 8.84 7.12089 15.16 9.09046 21H8.08042" stroke="#385723" stroke-width="1.5" stroke-linecap="round" stroke-linejoin="round"/>
<path id="Vector_3" d="M15.1504 3C17.12 8.84 17.12 15.16 15.1504 21" stroke="#385723" stroke-width="1.5" stroke-linecap="round" stroke-linejoin="round"/>
<path id="Vector_4" d="M3.0293 16V15C8.92791 16.95 15.3113 16.95 21.21 15V16" stroke="#385723" stroke-width="1.5" stroke-linecap="round" stroke-linejoin="round"/>
<path id="Vector_5" d="M3.0293 8.99961C8.92791 7.04961 15.3113 7.04961 21.21 8.99961" stroke="#385723" stroke-width="1.5" stroke-linecap="round" stroke-linejoin="round"/>
</g>
</g>
</svg>
