<svg width="24" height="24" viewBox="0 0 24 24" fill="none" xmlns="http://www.w3.org/2000/svg">
<g id="minus-cirlce">
<path id="Vector" d="M11.9199 22C13.8977 22 15.8311 21.4135 17.4756 20.3147C19.1201 19.2159 20.4018 17.6541 21.1587 15.8268C21.9156 13.9996 22.1136 11.9889 21.7278 10.0491C21.3419 8.10929 20.3895 6.32746 18.991 4.92894C17.5925 3.53041 15.8106 2.578 13.8708 2.19215C11.931 1.8063 9.92035 2.00433 8.09309 2.76121C6.26583 3.51809 4.70404 4.79981 3.60523 6.4443C2.50641 8.08879 1.91992 10.0222 1.91992 12C1.92757 14.6498 2.9836 17.1889 4.85731 19.0626C6.73101 20.9363 9.27011 21.9924 11.9199 22V22Z" stroke="#385723" stroke-width="1.5" stroke-linecap="round" stroke-linejoin="round"/>
<path id="Vector_2" d="M7.91992 12L15.9199 12" stroke="#385723" stroke-width="1.5" stroke-linecap="round" stroke-linejoin="round"/>
</g>
</svg>
