<svg width="24" height="24" viewBox="0 0 24 24" fill="none" xmlns="http://www.w3.org/2000/svg">
<path d="M12.0209 2.91016C10.4296 2.91016 8.9035 3.5423 7.77828 4.66752C6.65306 5.79273 6.02092 7.31886 6.02092 8.91016V11.8002C5.98892 12.5211 5.79404 13.2253 5.45092 13.8602L4.30092 15.7702C4.12918 16.0227 4.0202 16.3126 3.98302 16.6157C3.94585 16.9188 3.98155 17.2264 4.08717 17.513C4.1928 17.7995 4.36529 18.0567 4.5903 18.2632C4.81532 18.4697 5.08637 18.6195 5.38092 18.7002C9.68706 20.1402 14.3448 20.1402 18.6509 18.7002C18.9354 18.6053 19.1948 18.4477 19.4101 18.239C19.6254 18.0303 19.7911 17.7759 19.8948 17.4946C19.9985 17.2133 20.0376 16.9122 20.0092 16.6137C19.9809 16.3152 19.8857 16.0269 19.7309 15.7702L18.5809 13.8602C18.2454 13.2229 18.0542 12.5196 18.0209 11.8002V8.91016C18.0162 7.32032 17.3825 5.79695 16.2583 4.67276C15.1341 3.54857 13.6108 2.9149 12.0209 2.91016V2.91016Z" stroke="#1D1D1B" stroke-width="1.5" stroke-linecap="round"/>
<path d="M13.8699 3.19969C13.5559 3.10717 13.2348 3.04028 12.9099 2.99969C11.9925 2.87793 11.0599 2.94601 10.1699 3.19969C10.3161 2.82815 10.5707 2.50922 10.9007 2.28445C11.2307 2.05967 11.6207 1.93945 12.0199 1.93945C12.4192 1.93945 12.8092 2.05967 13.1392 2.28445C13.4691 2.50922 13.7238 2.82815 13.8699 3.19969V3.19969Z" stroke="#1D1D1B" stroke-width="1.5" stroke-linecap="round" stroke-linejoin="round"/>
<path d="M15.0195 19.0605C15.0172 19.8555 14.7003 20.6171 14.1382 21.1792C13.5761 21.7413 12.8145 22.0582 12.0195 22.0605C11.2244 22.0586 10.4623 21.7423 9.89953 21.1805C9.33778 20.6178 9.02143 19.8557 9.01953 19.0605" stroke="#1D1D1B" stroke-width="1.5"/>
</svg>
