<svg width="174" height="189" viewBox="0 0 174 189" fill="none" xmlns="http://www.w3.org/2000/svg">
<g opacity="0.6">
<rect width="134.774" height="134.774" transform="matrix(-1 0 0 1 230.387 95.6123)" fill="#385723"/>
<path d="M26.9551 230.388C26.9551 221.371 28.731 212.443 32.1814 204.113C35.6318 195.783 40.6891 188.215 47.0646 181.839C53.4402 175.464 61.009 170.406 69.339 166.956C77.669 163.505 86.5971 161.729 95.6134 161.729V191.239C90.4723 191.239 85.3816 192.252 80.6319 194.219C75.8821 196.187 71.5664 199.07 67.9311 202.706C64.2958 206.341 61.4122 210.657 59.4448 215.406C57.4774 220.156 56.4648 225.247 56.4648 230.388H26.9551Z" fill="#EEF7EB"/>
<path d="M95.6128 95.6124C90.4702 95.6124 85.3779 94.5994 80.6267 92.6314C75.8755 90.6634 71.5585 87.7789 67.922 84.1425C64.2856 80.5061 61.4011 76.189 59.4331 71.4378C57.4651 66.6866 56.4522 61.5943 56.4522 56.4517L95.6128 56.4517L95.6128 95.6124Z" fill="#FFCD1C"/>
<path d="M95.6136 95.6124C100.756 95.6124 105.849 94.5994 110.6 92.6314C115.351 90.6634 119.668 87.7789 123.304 84.1425C126.941 80.5061 129.825 76.189 131.793 71.4378C133.761 66.6866 134.774 61.5943 134.774 56.4517L95.6136 56.4517L95.6136 95.6124Z" fill="#385723"/>
<path d="M134.773 95.6118C134.773 100.754 133.761 105.847 131.793 110.598C129.825 115.349 126.94 119.666 123.304 123.303C119.667 126.939 115.35 129.824 110.599 131.792C105.848 133.76 100.755 134.772 95.6128 134.772V95.6118H134.773Z" fill="#52AE32"/>
<path d="M134.774 95.6131C134.774 83.057 137.247 70.6239 142.052 59.0235C146.857 47.4232 153.9 36.8829 162.778 28.0044C171.657 19.1259 182.197 12.0831 193.798 7.27811C205.398 2.4731 217.831 -5.48844e-07 230.387 0L230.387 30.2468C221.803 30.2468 213.303 31.9376 205.372 35.2225C197.442 38.5075 190.236 43.3223 184.166 49.3922C178.096 55.462 173.281 62.6679 169.996 70.5985C166.712 78.5291 165.021 87.0291 165.021 95.6131H134.774Z" fill="#98DB81"/>
<path d="M164.272 95.6145C164.272 86.9321 165.982 78.3347 169.305 70.3132C172.627 62.2917 177.497 55.0032 183.637 48.8638C189.776 42.7244 197.064 37.8544 205.086 34.5318C213.107 31.2091 221.705 29.499 230.387 29.499V56.3836C225.235 56.3836 220.134 57.3984 215.374 59.3699C210.615 61.3414 206.29 64.2312 202.647 67.8741C199.004 71.517 196.114 75.8418 194.143 80.6015C192.171 85.3612 191.156 90.4626 191.156 95.6145H164.272Z" fill="#385723"/>
<path d="M230.387 161.73C221.705 161.73 213.107 160.02 205.086 156.697C197.064 153.375 189.776 148.505 183.636 142.365C177.497 136.226 172.627 128.937 169.304 120.916C165.982 112.894 164.272 104.297 164.272 95.6145L191.326 95.6145C191.326 100.744 192.337 105.823 194.3 110.562C196.263 115.302 199.14 119.608 202.767 123.235C206.394 126.862 210.7 129.739 215.439 131.702C220.178 133.665 225.258 134.675 230.387 134.675L230.387 161.73Z" fill="#98DB82"/>
<path d="M161.729 230.386C161.729 221.704 160.019 213.106 156.696 205.085C153.373 197.063 148.503 189.775 142.364 183.635C136.225 177.496 128.936 172.626 120.915 169.303C112.893 165.981 104.296 164.271 95.6132 164.271V191.155C100.765 191.155 105.867 192.17 110.626 194.141C115.386 196.113 119.711 199.003 123.354 202.646C126.997 206.288 129.886 210.613 131.858 215.373C133.829 220.133 134.844 225.234 134.844 230.386H161.729Z" fill="#EEF7EB"/>
<path d="M56.4529 95.6118C56.4529 100.754 57.4659 105.847 59.4339 110.598C61.4019 115.349 64.2864 119.666 67.9228 123.303C71.5592 126.939 75.8763 129.824 80.6275 131.792C85.3787 133.76 90.471 134.772 95.6136 134.772V95.6118H56.4529Z" fill="#98DB82"/>
<path d="M29.4978 95.6141C29.4978 104.296 31.2079 112.894 34.5305 120.915C37.8531 128.937 42.7232 136.225 48.8625 142.365C55.0019 148.504 62.2904 153.374 70.3119 156.697C78.3334 160.019 86.9308 161.729 95.6132 161.729V134.845C90.4613 134.845 85.3599 133.83 80.6002 131.859C75.8405 129.887 71.5158 126.997 67.8728 123.354C64.2299 119.712 61.3402 115.387 59.3687 110.627C57.3971 105.867 56.3824 100.766 56.3824 95.6141H29.4978Z" fill="#FFCD1C"/>
<path d="M191.226 95.6145C191.226 108.171 188.753 120.604 183.948 132.204C179.143 143.804 172.1 154.345 163.222 163.223C154.343 172.102 143.803 179.144 132.203 183.949C120.603 188.754 108.169 191.228 95.6133 191.228L95.6133 164.266C104.629 164.266 113.556 162.49 121.885 159.04C130.214 155.59 137.782 150.533 144.157 144.158C150.532 137.783 155.589 130.215 159.039 121.886C162.489 113.557 164.265 104.63 164.265 95.6145H191.226Z" fill="#98DB81"/>
<path d="M164.271 95.6122C164.271 104.629 162.495 113.557 159.045 121.887C155.595 130.217 150.537 137.785 144.162 144.161C137.786 150.536 130.217 155.594 121.887 159.044C113.557 162.495 104.629 164.271 95.613 164.271V134.761C100.754 134.761 105.845 133.748 110.595 131.781C115.344 129.813 119.66 126.93 123.295 123.294C126.931 119.659 129.814 115.343 131.782 110.594C133.749 105.844 134.762 100.753 134.762 95.6122H164.271Z" fill="#385723"/>
<path d="M-9.15527e-05 230.386C-9.15527e-05 217.829 2.47301 205.396 7.27802 193.796C12.083 182.196 19.1258 171.655 28.0043 162.777C36.8828 153.898 47.4231 146.856 59.0235 142.051C70.6238 137.246 83.0569 134.772 95.613 134.772L95.613 164.229C86.9252 164.229 78.3225 165.94 70.296 169.265C62.2696 172.59 54.9765 177.463 48.8333 183.606C42.6902 189.749 37.8171 197.042 34.4924 205.069C31.1678 213.095 29.4566 221.698 29.4566 230.386H-9.15527e-05Z" fill="#385723"/>
</g>
</svg>
