<svg width="24" height="24" viewBox="0 0 24 24" fill="none" xmlns="http://www.w3.org/2000/svg">
<path d="M15 12C15 12.5933 14.8241 13.1734 14.4944 13.6667C14.1648 14.1601 13.6962 14.5446 13.1481 14.7716C12.5999 14.9987 11.9967 15.0581 11.4147 14.9424C10.8328 14.8266 10.2982 14.5409 9.87868 14.1213C9.45912 13.7018 9.1734 13.1672 9.05765 12.5853C8.94189 12.0033 9.0013 11.4001 9.22836 10.8519C9.45543 10.3038 9.83994 9.83524 10.3333 9.50559C10.8266 9.17595 11.4067 9 12 9C12.7957 9 13.5587 9.31607 14.1213 9.87868C14.6839 10.4413 15 11.2044 15 12Z" stroke="#1D1D1B" stroke-width="1.5" stroke-linecap="round" stroke-linejoin="round"/>
<path d="M2 12.8809V11.1209C2.00158 10.6174 2.20227 10.1351 2.55825 9.7791C2.91422 9.42312 3.39658 9.22243 3.9 9.22085C5.71 9.22085 6.45 7.94085 5.54 6.37085C5.29015 5.93439 5.22353 5.41668 5.35474 4.93119C5.48596 4.44569 5.8043 4.03203 6.24 3.78085L7.97 2.79085C8.35203 2.56858 8.80663 2.50693 9.23406 2.61941C9.6615 2.73189 10.0269 3.00933 10.25 3.39085L10.36 3.58085C11.26 5.15085 12.74 5.15085 13.65 3.58085L13.76 3.39085C13.9831 3.00933 14.3485 2.73189 14.7759 2.61941C15.2034 2.50693 15.658 2.56858 16.04 2.79085L17.77 3.78085C18.2057 4.03203 18.524 4.44569 18.6553 4.93119C18.7865 5.41668 18.7199 5.93439 18.47 6.37085C17.56 7.94085 18.3 9.22085 20.11 9.22085C20.6134 9.22243 21.0958 9.42312 21.4518 9.7791C21.8077 10.1351 22.0084 10.6174 22.01 11.1209V12.8809C22.0084 13.3843 21.8077 13.8666 21.4518 14.2226C21.0958 14.5786 20.6134 14.7793 20.11 14.7809C18.3 14.7809 17.56 16.0609 18.47 17.6309C18.7199 18.0673 18.7865 18.585 18.6553 19.0705C18.524 19.556 18.2057 19.9697 17.77 20.2209L16.04 21.2109C15.658 21.4331 15.2034 21.4948 14.7759 21.3823C14.3485 21.2698 13.9831 20.9924 13.76 20.6109L13.65 20.4209C12.75 18.8509 11.27 18.8509 10.36 20.4209L10.25 20.6109C10.0269 20.9924 9.6615 21.2698 9.23406 21.3823C8.80663 21.4948 8.35203 21.4331 7.97 21.2109L6.24 20.2209C5.8043 19.9697 5.48596 19.556 5.35474 19.0705C5.22353 18.585 5.29015 18.0673 5.54 17.6309C6.45 16.0609 5.71 14.7809 3.9 14.7809C3.39658 14.7793 2.91422 14.5786 2.55825 14.2226C2.20227 13.8666 2.00158 13.3843 2 12.8809V12.8809Z" stroke="#1D1D1B" stroke-width="1.5" stroke-linecap="round" stroke-linejoin="round"/>
</svg>
