<svg width="52" height="52" viewBox="0 0 52 52" fill="none" xmlns="http://www.w3.org/2000/svg">
<g id="tick-circle">
<path id="Vector" d="M26.0002 47.6666C30.2854 47.6666 34.4745 46.3959 38.0375 44.0151C41.6006 41.6343 44.3777 38.2505 46.0176 34.2914C47.6575 30.3323 48.0865 25.9759 47.2505 21.773C46.4145 17.5701 44.3509 13.7094 41.3208 10.6793C38.2907 7.64914 34.43 5.58559 30.2271 4.74958C26.0242 3.91357 21.6678 4.34264 17.7087 5.98254C13.7496 7.62244 10.3658 10.3995 7.98499 13.9626C5.60422 17.5256 4.3335 21.7147 4.3335 25.9999C4.35007 31.7412 6.63813 37.2426 10.6978 41.3023C14.7575 45.362 20.2589 47.65 26.0002 47.6666V47.6666Z" stroke="#52AE32" stroke-width="3.25" stroke-linecap="round" stroke-linejoin="round"/>
<path id="Vector_2" d="M16.7915 25.9998L22.9232 32.1315L35.2082 19.8682" stroke="#52AE32" stroke-width="3.25" stroke-linecap="round" stroke-linejoin="round"/>
</g>
</svg>
