<svg width="52" height="52" viewBox="0 0 52 52" fill="none" xmlns="http://www.w3.org/2000/svg">
<path d="M26 47.6664C30.2853 47.6664 34.4743 46.3956 38.0374 44.0149C41.6004 41.6341 44.3775 38.2502 46.0174 34.2912C47.6573 30.3321 48.0864 25.9757 47.2503 21.7727C46.4143 17.5698 44.3508 13.7092 41.3206 10.679C38.2905 7.6489 34.4299 5.58535 30.227 4.74934C26.024 3.91332 21.6676 4.3424 17.7085 5.98229C13.7495 7.62219 10.3656 10.3993 7.98482 13.9623C5.60406 17.5254 4.33333 21.7144 4.33333 25.9997C4.34991 31.7409 6.63796 37.2423 10.6977 41.302C14.7574 45.3617 20.2587 47.6498 26 47.6664V47.6664Z" stroke="#52AE32" stroke-width="3.25" stroke-linecap="round" stroke-linejoin="round"/>
<path d="M16.7917 25.9998L22.9233 32.1315L35.2083 19.8682" stroke="#52AE32" stroke-width="3.25" stroke-linecap="round" stroke-linejoin="round"/>
</svg>
