<svg width="24" height="24" viewBox="0 0 24 24" fill="none" xmlns="http://www.w3.org/2000/svg">
<path d="M10.49 2.23001L5.50003 4.11001C4.90564 4.36664 4.3949 4.78446 4.02556 5.3162C3.65622 5.84795 3.44301 6.47242 3.41003 7.11901V14.549C3.44897 15.21 3.6225 15.856 3.91998 16.4476C4.21746 17.0391 4.63263 17.5636 5.14003 17.989L9.44003 21.199C10.1971 21.7168 11.0928 21.9939 12.01 21.9939C12.9272 21.9939 13.823 21.7168 14.58 21.199L18.88 17.989C19.3874 17.5636 19.8026 17.0391 20.1001 16.4476C20.3976 15.856 20.5711 15.21 20.61 14.549V7.11901C20.5792 6.47022 20.367 5.84309 19.9976 5.30888C19.6281 4.77467 19.1162 4.35481 18.52 4.09701L13.53 2.23001C12.5404 1.92002 11.4797 1.92002 10.49 2.23001V2.23001Z" stroke="#666666" stroke-width="1.5" stroke-linecap="round" stroke-linejoin="round"/>
<path d="M9.04999 11.87L10.66 13.48L14.96 9.17999" stroke="#666666" stroke-width="1.5" stroke-linecap="round" stroke-linejoin="round"/>
</svg>
