<svg width="24" height="24" viewBox="0 0 24 24" fill="none" xmlns="http://www.w3.org/2000/svg">
<path d="M21.6709 14.3003L21.2709 19.3003C21.1209 20.8303 21.0009 22.0003 18.2909 22.0003H5.71092C3.00092 22.0003 2.88092 20.8303 2.73092 19.3003L2.33092 14.3003C2.25367 13.5134 2.48692 12.7275 2.98092 12.1103L3.00092 12.0903C3.28086 11.7484 3.63342 11.4733 4.03299 11.2847C4.43255 11.0962 4.8691 10.999 5.31092 11.0003H18.6909C19.1279 10.9988 19.5598 11.094 19.9557 11.279C20.3515 11.464 20.7016 11.7342 20.9809 12.0703C20.9909 12.0803 21.0009 12.0903 21.0009 12.1003C21.2554 12.4027 21.446 12.7535 21.5612 13.1316C21.6764 13.5098 21.7137 13.9073 21.6709 14.3003Z" stroke="#385723" stroke-width="1.5"/>
<path d="M3.5 11.4302V6.2802C3.5 2.8802 4.35 2.0302 7.75 2.0302H9.02C9.42325 1.9745 9.83391 2.04212 10.198 2.22417C10.5621 2.40622 10.8626 2.69418 11.06 3.0502L12.33 4.7502C12.4624 4.98686 12.6628 5.17824 12.9053 5.29951C13.1479 5.42077 13.4213 5.46631 13.69 5.4302H16.24C19.64 5.4302 20.49 6.2802 20.49 9.6802V11.4702" stroke="#385723" stroke-width="1.5" stroke-linecap="round" stroke-linejoin="round"/>
<path d="M9.42969 17.0002H14.5697" stroke="#385723" stroke-width="1.5" stroke-linecap="round" stroke-linejoin="round"/>
</svg>
