<svg width="40" height="40" viewBox="0 0 40 40" fill="none" xmlns="http://www.w3.org/2000/svg">
<path d="M20 16V10L18 12" stroke="#666666" stroke-width="1.5" stroke-linecap="round" stroke-linejoin="round"/>
<path d="M20 10L22 12" stroke="#666666" stroke-width="1.5" stroke-linecap="round" stroke-linejoin="round"/>
<path d="M15 20.0002C11 20.0002 11 21.7902 11 24.0002V25.0002C11 27.7602 11 30.0002 16 30.0002H24C28 30.0002 29 27.7602 29 25.0002V24.0002C29 21.7902 29 20.0002 25 20.0002C24.6748 19.9702 24.3469 20.0081 24.0371 20.1114C23.7272 20.2147 23.4422 20.3811 23.2 20.6002L22.18 21.6802C21.8995 21.9783 21.5609 22.2159 21.1852 22.3783C20.8094 22.5407 20.4044 22.6245 19.995 22.6245C19.5856 22.6245 19.1806 22.5407 18.8048 22.3783C18.4291 22.2159 18.0905 21.9783 17.81 21.6802L16.8 20.6002C16.5578 20.3811 16.2728 20.2147 15.9629 20.1114C15.6531 20.0081 15.3252 19.9702 15 20.0002V20.0002Z" stroke="#666666" stroke-width="1.5" stroke-linecap="round" stroke-linejoin="round"/>
<path d="M13 19.9991L13 17.9991C13 15.9891 13 14.3291 16 14.0391" stroke="#666666" stroke-width="1.5" stroke-linecap="round" stroke-linejoin="round"/>
<path d="M27 19.9991V17.9991C27 15.9891 27 14.3291 24 14.0391" stroke="#666666" stroke-width="1.5" stroke-linecap="round" stroke-linejoin="round"/>
</svg>
