<svg width="717" height="717" viewBox="0 0 717 717" fill="none" xmlns="http://www.w3.org/2000/svg">
<g opacity="0.05">
<path d="M717.133 297.563H297.696V717H717.133V297.563Z" fill="#1C468E"/>
<path d="M84.0205 717C84.0205 688.94 89.5474 661.154 100.286 635.23C111.024 609.306 126.763 585.75 146.605 565.909C166.446 546.067 190.002 530.328 215.926 519.59C241.85 508.851 269.636 503.324 297.696 503.324V595.163C281.696 595.163 265.853 598.315 251.071 604.437C236.289 610.56 222.858 619.535 211.544 630.848C200.231 642.162 191.256 655.593 185.133 670.375C179.011 685.157 175.859 701 175.859 717H84.0205Z" fill="#E7F0FF"/>
<path d="M595.259 297.563C595.259 313.568 598.411 329.416 604.536 344.202C610.66 358.989 619.638 372.424 630.955 383.741C642.272 395.058 655.707 404.035 670.493 410.16C685.28 416.285 701.128 419.437 717.133 419.437L717.133 297.563L595.259 297.563Z" fill="#E7F0FF"/>
<path d="M297.696 297.563C281.691 297.563 265.843 294.411 251.057 288.286C236.27 282.161 222.835 273.184 211.518 261.867C200.201 250.55 191.224 237.114 185.099 222.328C178.974 207.542 175.822 191.694 175.822 175.689H297.696L297.696 297.563Z" fill="#FFCD1C"/>
<path d="M297.696 297.563C313.701 297.563 329.549 294.411 344.335 288.286C359.122 282.161 372.557 273.184 383.874 261.867C395.191 250.55 404.168 237.114 410.293 222.328C416.418 207.542 419.57 191.694 419.57 175.689H297.696L297.696 297.563Z" fill="#1C468E"/>
<path d="M175.822 717C175.822 700.995 178.974 685.147 185.099 670.36C191.224 655.574 200.201 642.139 211.518 630.822C222.835 619.505 236.27 610.527 251.057 604.403C265.843 598.278 281.691 595.125 297.696 595.125L297.696 717L175.822 717Z" fill="#FFCD1C"/>
<path d="M419.57 717C419.57 700.995 416.418 685.147 410.293 670.36C404.168 655.574 395.191 642.139 383.874 630.822C372.557 619.505 359.121 610.527 344.335 604.403C329.549 598.278 313.701 595.125 297.696 595.125L297.696 717L419.57 717Z" fill="#98DB82"/>
<path d="M419.57 297.563C419.57 313.568 416.418 329.416 410.293 344.202C404.168 358.989 395.191 372.424 383.874 383.741C372.557 395.058 359.121 404.035 344.335 410.16C329.549 416.285 313.701 419.437 297.696 419.437L297.696 297.563L419.57 297.563Z" fill="#1C468E"/>
<path d="M419.57 297.563C419.57 258.487 427.267 219.792 442.22 183.69C457.174 147.588 479.093 114.785 506.724 87.1541C534.355 59.5229 567.158 37.6045 603.26 22.6506C639.362 7.69669 678.056 -1.70809e-06 717.133 0L717.133 94.1328C690.418 94.1328 663.965 99.3947 639.283 109.618C614.602 119.841 592.176 134.826 573.286 153.716C554.396 172.606 539.411 195.032 529.188 219.714C518.965 244.395 513.703 270.848 513.703 297.563L419.57 297.563Z" fill="#98DB81"/>
<path d="M511.371 297.563C511.371 270.542 516.693 243.785 527.034 218.821C537.374 193.857 552.531 171.174 571.637 152.067C590.744 132.961 613.427 117.804 638.391 107.464C663.355 97.1233 690.112 91.8011 717.133 91.8011L717.133 175.47C701.099 175.47 685.223 178.628 670.41 184.764C655.597 190.9 642.138 199.893 630.8 211.23C619.463 222.568 610.47 236.027 604.334 250.84C598.198 265.653 595.04 281.529 595.04 297.563H511.371Z" fill="#1C468E"/>
<path d="M717.133 503.324C690.112 503.324 663.355 498.002 638.391 487.662C613.427 477.321 590.744 462.165 571.637 443.058C552.531 423.951 537.374 401.268 527.034 376.304C516.693 351.34 511.371 324.584 511.371 297.563H595.569C595.569 313.527 598.713 329.334 604.822 344.083C610.931 358.832 619.886 372.233 631.174 383.521C642.462 394.81 655.863 403.764 670.612 409.873C685.361 415.982 701.169 419.127 717.133 419.127L717.133 503.324Z" fill="#98DB82"/>
<path d="M503.457 717C503.457 689.979 498.135 663.222 487.794 638.258C477.454 613.294 462.298 590.611 443.191 571.504C424.084 552.398 401.401 537.241 376.437 526.901C351.473 516.56 324.717 511.238 297.696 511.238V594.907C313.729 594.907 329.605 598.065 344.418 604.201C359.231 610.337 372.691 619.33 384.028 630.667C395.365 642.005 404.358 655.464 410.494 670.277C416.63 685.09 419.788 700.966 419.788 717H503.457Z" fill="#E7F0FF"/>
<path d="M175.822 297.563C175.822 313.568 178.974 329.416 185.099 344.202C191.224 358.989 200.201 372.424 211.518 383.741C222.835 395.058 236.27 404.035 251.057 410.16C265.843 416.285 281.691 419.437 297.696 419.437L297.696 297.563L175.822 297.563Z" fill="#98DB82"/>
<path d="M91.9343 297.563C91.9343 324.584 97.2565 351.34 107.597 376.304C117.937 401.269 133.094 423.952 152.2 443.058C171.307 462.165 193.99 477.321 218.954 487.662C243.918 498.002 270.675 503.324 297.696 503.324L297.696 419.655C281.662 419.655 265.786 416.497 250.973 410.362C236.16 404.226 222.701 395.233 211.363 383.895C200.026 372.558 191.033 359.099 184.897 344.286C178.761 329.473 175.603 313.596 175.603 297.563H91.9343Z" fill="#FFCD1C"/>
<path d="M595.259 297.563C595.259 336.639 587.562 375.333 572.608 411.435C557.654 447.537 535.736 480.34 508.104 507.971C480.473 535.603 447.67 557.521 411.568 572.475C375.466 587.429 336.773 595.125 297.696 595.125L297.696 511.216C325.753 511.216 353.536 505.69 379.457 494.953C405.379 484.216 428.932 468.478 448.772 448.638C468.611 428.799 484.349 405.246 495.086 379.324C505.823 353.403 511.349 325.62 511.349 297.563L595.259 297.563Z" fill="#98DB81"/>
<path d="M511.371 297.563C511.371 325.623 505.844 353.409 495.106 379.333C484.368 405.257 468.629 428.813 448.787 448.654C428.946 468.496 405.39 484.235 379.466 494.973C353.542 505.711 325.756 511.238 297.696 511.238L297.696 419.4C313.696 419.4 329.539 416.248 344.321 410.125C359.103 404.002 372.534 395.028 383.847 383.714C395.161 372.401 404.135 358.97 410.258 344.188C416.381 329.406 419.533 313.563 419.533 297.563L511.371 297.563Z" fill="#1C468E"/>
<path d="M0.132812 717C0.132812 677.924 7.82953 639.23 22.7834 603.128C37.7374 567.026 59.6557 534.223 87.2869 506.591C114.918 478.96 147.721 457.042 183.823 442.088C219.925 427.134 258.619 419.437 297.696 419.437L297.696 511.111C270.658 511.111 243.885 516.436 218.905 526.783C193.926 537.13 171.229 552.296 152.11 571.414C132.991 590.533 117.826 613.23 107.479 638.21C97.132 663.189 91.8066 689.962 91.8066 717H0.132812Z" fill="#1C468E"/>
</g>
</svg>
