<svg width="113" height="138" viewBox="0 0 113 138" fill="none" xmlns="http://www.w3.org/2000/svg">
<g opacity="0.6">
<path d="M146.289 120.884C140.564 120.884 134.895 119.757 129.605 117.566C124.316 115.375 119.51 112.164 115.462 108.115C111.414 104.067 108.202 99.261 106.011 93.9717C103.821 88.6824 102.693 83.0134 102.693 77.2883L121.431 77.2883C121.431 80.5527 122.074 83.7852 123.323 86.8011C124.572 89.817 126.403 92.5574 128.711 94.8657C131.02 97.174 133.76 99.005 136.776 100.254C139.792 101.504 143.024 102.146 146.289 102.146L146.289 120.884Z" fill="#FFE177"/>
<path d="M60.7113 52.4227C52.7386 52.4227 44.844 50.8524 37.4781 47.8013C30.1123 44.7503 23.4195 40.2783 17.7819 34.6407C12.1444 29.0032 7.6724 22.3104 4.62137 14.9446C1.57034 7.57873 -3.35078e-06 -0.315926 -2.65378e-06 -8.28866L19.2058 -8.28865C19.2058 -2.83807 20.2794 2.55914 22.3652 7.59483C24.4511 12.6305 27.5083 17.2061 31.3625 21.0602C35.2166 24.9144 39.7922 27.9716 44.8279 30.0575C49.8635 32.1433 55.2608 33.2169 60.7113 33.2169L60.7113 52.4227Z" fill="#98DB81"/>
<path d="M60.712 33.693C55.1989 33.693 49.7398 32.6071 44.6464 30.4973C39.553 28.3876 34.9251 25.2953 31.0267 21.397C27.1284 17.4986 24.0361 12.8706 21.9263 7.77725C19.8166 2.68385 18.7307 -2.77523 18.7307 -8.28828L35.8016 -8.28828C35.8016 -5.01701 36.4459 -1.77777 37.6978 1.2445C38.9497 4.26676 40.7845 7.01286 43.0977 9.326C45.4108 11.6391 48.1569 13.474 51.1792 14.7259C54.2014 15.9777 57.4407 16.6221 60.712 16.6221L60.712 33.693Z" fill="#385723"/>
<path d="M60.7122 16.5773C68.685 16.5773 76.5796 18.1476 83.9455 21.1987C91.3113 24.2497 98.0041 28.7217 103.642 34.3593C109.279 39.9968 113.751 46.6896 116.802 54.0554C119.853 61.4213 121.424 69.3159 121.424 77.2887L104.304 77.2887C104.304 71.5641 103.176 65.8957 100.985 60.6069C98.7948 55.3182 95.5839 50.5127 91.536 46.4649C87.4882 42.417 82.6827 39.2061 77.394 37.0154C72.1052 34.8248 66.4367 33.6972 60.7122 33.6972L60.7122 16.5773Z" fill="#98DB81"/>
<path d="M60.7111 33.692C66.4362 33.692 72.1052 34.8196 77.3945 37.0105C82.6838 39.2014 87.4898 42.4127 91.5381 46.4609C95.5863 50.5092 98.7976 55.3151 100.988 60.6045C103.179 65.8937 104.307 71.5628 104.307 77.2879L85.5693 77.2879C85.5693 74.0235 84.9263 70.791 83.6771 67.7751C82.4278 64.7591 80.5968 62.0188 78.2885 59.7105C75.9802 57.4022 73.2399 55.5712 70.2239 54.3219C67.208 53.0727 63.9755 52.4297 60.7111 52.4297L60.7111 33.692Z" fill="#385723"/>
<path d="M146.287 138C138.315 138 130.42 136.429 123.054 133.378C115.688 130.327 108.996 125.855 103.358 120.218C97.7204 114.58 93.2485 107.888 90.1974 100.522C87.1464 93.1559 85.576 85.2612 85.576 77.2885L104.28 77.2885C104.28 82.805 105.367 88.2674 107.478 93.364C109.589 98.4605 112.683 103.091 116.584 106.992C120.484 110.893 125.115 113.987 130.212 116.098C135.308 118.209 140.771 119.296 146.287 119.296L146.287 138Z" fill="#385723"/>
</g>
</svg>
