<svg width="683" height="528" viewBox="0 0 683 528" fill="none" xmlns="http://www.w3.org/2000/svg">
<path d="M900.133 373.51H373.643V900H900.133V373.51Z" fill="#1C468E"/>
<path d="M105.431 900C105.431 864.778 112.369 829.901 125.848 797.36C139.326 764.819 159.083 735.251 183.989 710.345C208.894 685.44 238.462 665.683 271.003 652.204C303.544 638.726 338.421 631.788 373.643 631.788V747.067C353.56 747.067 333.673 751.022 315.118 758.708C296.563 766.394 279.704 777.659 265.503 791.86C251.302 806.061 240.037 822.92 232.351 841.475C224.666 860.03 220.71 879.916 220.71 900H105.431Z" fill="#E7F0FF"/>
<path d="M747.153 373.51C747.153 393.6 751.109 413.493 758.797 432.053C766.485 450.613 777.754 467.478 791.959 481.683C806.165 495.889 823.029 507.157 841.59 514.845C860.15 522.533 880.043 526.49 900.133 526.49L900.133 373.51L747.153 373.51Z" fill="#E7F0FF"/>
<path d="M373.643 373.51C353.553 373.51 333.66 369.553 315.1 361.865C296.54 354.177 279.675 342.909 265.47 328.703C251.264 314.498 239.996 297.633 232.308 279.073C224.62 260.512 220.663 240.619 220.663 220.53H373.643L373.643 373.51Z" fill="#75A7FD"/>
<path d="M373.643 373.51C393.733 373.51 413.626 369.553 432.186 361.865C450.746 354.177 467.611 342.909 481.816 328.703C496.022 314.498 507.29 297.633 514.978 279.073C522.666 260.512 526.623 240.619 526.623 220.53H373.643L373.643 373.51Z" fill="#1C468E"/>
<path d="M220.663 900C220.663 879.91 224.62 860.017 232.308 841.457C239.996 822.896 251.264 806.032 265.47 791.826C279.675 777.621 296.54 766.352 315.1 758.664C333.661 750.976 353.554 747.019 373.643 747.019L373.643 900L220.663 900Z" fill="#75A7FD"/>
<path d="M526.623 900C526.623 879.91 522.666 860.017 514.978 841.457C507.29 822.896 496.022 806.032 481.816 791.826C467.611 777.621 450.746 766.352 432.186 758.664C413.625 750.976 393.733 747.019 373.643 747.019L373.643 900L526.623 900Z" fill="#B4CDF6"/>
<path d="M526.623 373.51C526.623 393.6 522.666 413.493 514.978 432.053C507.29 450.613 496.022 467.478 481.816 481.683C467.611 495.889 450.746 507.157 432.186 514.845C413.625 522.533 393.733 526.49 373.643 526.49L373.643 373.51L526.623 373.51Z" fill="#5483D4"/>
<path d="M526.623 373.51C526.623 324.46 536.284 275.89 555.055 230.574C573.825 185.258 601.338 144.082 636.021 109.399C670.705 74.7149 711.88 47.2024 757.197 28.4317C802.513 9.66111 851.083 -2.14404e-06 900.133 0L900.133 118.158C866.599 118.158 833.395 124.763 802.414 137.596C771.433 150.428 743.283 169.237 719.572 192.949C695.86 216.661 677.051 244.81 664.219 275.791C651.386 306.772 644.781 339.977 644.781 373.51L526.623 373.51Z" fill="#B9CFF5"/>
<path d="M641.855 373.51C641.855 339.592 648.535 306.007 661.515 274.671C674.495 243.335 693.519 214.863 717.503 190.879C741.486 166.896 769.958 147.872 801.294 134.892C832.63 121.912 866.215 115.232 900.133 115.232L900.133 220.256C880.007 220.256 860.079 224.22 841.485 231.921C822.891 239.623 805.997 250.912 791.766 265.143C777.535 279.374 766.246 296.268 758.545 314.862C750.843 333.456 746.879 353.384 746.879 373.51H641.855Z" fill="#1C468E"/>
<path d="M900.133 631.788C866.215 631.788 832.63 625.107 801.294 612.128C769.958 599.148 741.486 580.123 717.503 556.14C693.519 532.157 674.495 503.684 661.515 472.348C648.535 441.013 641.855 407.427 641.855 373.51H747.542C747.542 393.548 751.489 413.39 759.157 431.904C766.826 450.417 778.065 467.238 792.235 481.408C806.404 495.577 823.226 506.817 841.739 514.485C860.252 522.154 880.094 526.1 900.133 526.1L900.133 631.788Z" fill="#B4CDF6"/>
<path d="M631.921 900C631.921 866.082 625.24 832.497 612.26 801.161C599.281 769.825 580.256 741.353 556.273 717.37C532.289 693.386 503.817 674.362 472.481 661.382C441.146 648.402 407.56 641.722 373.643 641.722V746.746C393.768 746.746 413.697 750.71 432.29 758.411C450.884 766.113 467.779 777.402 482.009 791.633C496.24 805.864 507.529 822.758 515.231 841.352C522.933 859.946 526.897 879.874 526.897 900H631.921Z" fill="#E7F0FF"/>
<path d="M220.663 373.51C220.663 393.6 224.62 413.493 232.308 432.053C239.996 450.613 251.264 467.478 265.47 481.683C279.675 495.889 296.54 507.157 315.1 514.845C333.661 522.533 353.553 526.49 373.643 526.49L373.643 373.51L220.663 373.51Z" fill="#B4CDF6"/>
<path d="M115.365 373.51C115.365 407.427 122.045 441.013 135.025 472.349C148.005 503.684 167.029 532.157 191.013 556.14C214.996 580.123 243.468 599.148 274.804 612.128C306.14 625.107 339.725 631.788 373.643 631.788L373.643 526.764C353.517 526.764 333.589 522.8 314.995 515.098C296.401 507.396 279.507 496.108 265.276 481.877C251.045 467.646 239.756 450.751 232.055 432.158C224.353 413.564 220.389 393.636 220.389 373.51H115.365Z" fill="#75A7FD"/>
<path d="M747.153 373.51C747.153 422.56 737.491 471.129 718.721 516.446C699.95 561.762 672.438 602.937 637.754 637.621C603.071 672.305 561.895 699.817 516.579 718.588C471.263 737.358 422.693 747.019 373.643 747.019L373.643 641.694C408.861 641.694 443.735 634.757 476.272 621.28C508.81 607.802 538.375 588.048 563.278 563.144C588.181 538.241 607.935 508.677 621.413 476.139C634.89 443.602 641.827 408.728 641.827 373.51L747.153 373.51Z" fill="#B9CFF5"/>
<path d="M641.855 373.51C641.855 408.732 634.917 443.609 621.438 476.15C607.959 508.691 588.203 538.258 563.297 563.164C538.392 588.07 508.824 607.826 476.283 621.305C443.742 634.784 408.865 641.722 373.643 641.722L373.643 526.443C393.726 526.443 413.613 522.487 432.168 514.802C450.723 507.116 467.582 495.851 481.783 481.65C495.984 467.449 507.249 450.589 514.935 432.035C522.62 413.48 526.576 393.593 526.576 373.51L641.855 373.51Z" fill="#1C468E"/>
<path d="M0.132812 900C0.132812 850.95 9.79395 802.38 28.5646 757.064C47.3352 711.748 74.8477 670.572 109.531 635.889C144.215 601.205 185.39 573.693 230.707 554.922C276.023 536.151 324.593 526.49 373.643 526.49L373.643 641.562C339.704 641.562 306.098 648.247 274.743 661.234C243.387 674.222 214.897 693.258 190.899 717.257C166.901 741.255 147.865 769.745 134.877 801.1C121.889 832.455 115.204 866.061 115.204 900H0.132812Z" fill="#1C468E"/>
</svg>
