<svg width="1440" height="650" viewBox="0 0 1440 650" fill="none" xmlns="http://www.w3.org/2000/svg">
<g opacity="0.05">
<path d="M0.000102095 0.61554H842.384V842.999H0.000102095V0.61554Z" fill="#1C468E"/>
<path d="M1271.52 843C1271.52 786.644 1260.42 730.841 1238.86 678.775C1217.29 626.71 1185.68 579.402 1145.83 539.553C1105.98 499.703 1058.67 468.093 1006.61 446.527C954.543 424.961 898.739 413.861 842.384 413.861V598.307C874.517 598.307 906.336 604.636 936.024 616.933C965.711 629.23 992.686 647.254 1015.41 669.976C1038.13 692.698 1056.15 719.672 1068.45 749.36C1080.75 779.047 1087.08 810.866 1087.08 843H1271.52Z" fill="#E7F0FF"/>
<path d="M244.768 0.615845C244.768 32.7593 238.437 64.5882 226.137 94.2849C213.836 123.982 195.806 150.965 173.078 173.693C150.349 196.422 123.366 214.452 93.6691 226.752C63.9724 239.053 32.1438 245.384 0.000371499 245.384L0.000102095 0.61554L244.768 0.615845Z" fill="#E7F0FF"/>
<path d="M842.384 0.61554C874.527 0.61554 906.356 -5.71521 936.053 -18.016C965.749 -30.3168 992.732 -48.3463 1015.46 -71.0751C1038.19 -93.8039 1056.22 -120.787 1068.52 -150.484C1080.82 -180.18 1087.15 -212.009 1087.15 -244.152H842.384L842.384 0.61554Z" fill="#FFCD1C"/>
<path d="M842.384 0.61554C810.24 0.61554 778.411 -5.71521 748.715 -18.016C719.018 -30.3168 692.035 -48.3463 669.306 -71.0751C646.578 -93.8039 628.548 -120.787 616.247 -150.484C603.947 -180.18 597.615 -212.009 597.615 -244.152H842.384L842.384 0.61554Z" fill="#1C468E"/>
<path d="M1087.15 842.999C1087.15 810.856 1080.82 779.027 1068.52 749.33C1056.22 719.634 1038.19 692.651 1015.46 669.922C992.732 647.193 965.749 629.164 936.052 616.863C906.356 604.562 874.527 598.231 842.383 598.231L842.384 842.999L1087.15 842.999Z" fill="#FFCD1C"/>
<path d="M597.616 842.999C597.616 810.856 603.947 779.027 616.248 749.33C628.548 719.634 646.578 692.651 669.307 669.922C692.036 647.193 719.019 629.164 748.715 616.863C778.412 604.562 810.24 598.231 842.383 598.231L842.384 842.999L597.616 842.999Z" fill="#1C468E"/>
<path d="M597.616 0.61615C597.616 32.7596 603.947 64.5882 616.248 94.2849C628.548 123.982 646.578 150.965 669.307 173.693C692.036 196.422 719.019 214.452 748.715 226.752C778.412 239.053 810.24 245.384 842.384 245.384L842.384 0.61554L597.616 0.61615Z" fill="#1C468E"/>
<path d="M597.616 0.61615C597.616 -77.8639 582.158 -155.576 552.125 -228.082C522.092 -300.588 478.072 -366.469 422.578 -421.962C367.085 -477.456 301.204 -521.476 228.698 -551.509C156.192 -581.542 78.4803 -597 0.000300055 -597L0.000308319 -407.947C53.6535 -407.947 106.781 -397.379 156.35 -376.847C205.919 -356.314 250.959 -326.22 288.897 -288.281C326.836 -250.343 356.93 -205.303 377.463 -155.734C397.995 -106.165 408.563 -53.0374 408.563 0.615784L597.616 0.61615Z" fill="#5483D4"/>
<path d="M413.245 0.615417C413.245 -53.6527 402.556 -107.389 381.788 -157.527C361.021 -207.664 330.582 -253.22 292.208 -291.593C253.835 -329.966 208.279 -360.406 158.142 -381.173C108.005 -401.941 54.2681 -412.63 0 -412.63L7.34519e-06 -244.591C32.201 -244.591 64.0866 -238.249 93.8364 -225.926C123.586 -213.603 150.618 -195.541 173.387 -172.772C196.157 -150.002 214.218 -122.971 226.541 -93.221C238.864 -63.4712 245.206 -31.5856 245.206 0.615417H413.245Z" fill="#1C468E"/>
<path d="M0.000149999 413.86C54.2682 413.86 108.005 403.172 158.142 382.404C208.279 361.636 253.835 331.197 292.208 292.824C330.582 254.45 361.021 208.895 381.789 158.757C402.556 108.62 413.245 54.8835 413.245 0.615417H244.145C244.145 32.677 237.83 64.4247 225.561 94.0457C213.291 123.667 195.308 150.581 172.637 173.252C149.966 195.923 123.051 213.907 93.4304 226.176C63.8094 238.446 32.0617 244.76 0.00015739 244.76L0.000149999 413.86Z" fill="#1C468E"/>
<path d="M429.14 843C429.14 788.731 439.829 734.995 460.596 684.857C481.363 634.72 511.803 589.165 550.176 550.791C588.55 512.418 634.105 481.978 684.243 461.211C734.38 440.443 788.116 429.755 842.384 429.755V597.793C810.183 597.793 778.298 604.135 748.548 616.458C718.798 628.781 691.767 646.843 668.997 669.612C646.228 692.382 628.166 719.413 615.843 749.163C603.52 778.913 597.178 810.799 597.178 843H429.14Z" fill="#E7F0FF"/>
<path d="M1087.15 0.61615C1087.15 32.7596 1080.82 64.5882 1068.52 94.2849C1056.22 123.982 1038.19 150.965 1015.46 173.693C992.732 196.422 965.749 214.452 936.052 226.752C906.356 239.053 874.527 245.384 842.384 245.384L842.384 0.61554L1087.15 0.61615Z" fill="#1C468E"/>
<path d="M1255.63 0.615845C1255.63 54.884 1244.94 108.621 1224.17 158.758C1203.41 208.895 1172.97 254.451 1134.59 292.824C1096.22 331.198 1050.66 361.637 1000.53 382.404C950.389 403.172 896.652 413.861 842.384 413.861L842.384 245.822C874.585 245.822 906.471 239.48 936.221 227.157C965.97 214.834 993.002 196.773 1015.77 174.003C1038.54 151.234 1056.6 124.202 1068.93 94.4523C1081.25 64.7025 1087.59 32.8168 1087.59 0.615845H1255.63Z" fill="#FFCD1C"/>
<path d="M244.768 0.615845C244.768 79.0959 260.226 156.807 290.259 229.313C320.292 301.819 364.312 367.7 419.806 423.194C475.3 478.687 541.18 522.707 613.686 552.74C686.192 582.773 763.904 598.231 842.383 598.231L842.384 429.71C786.034 429.71 730.237 418.611 678.177 397.047C626.116 375.483 578.813 343.876 538.968 304.031C499.123 264.186 467.516 216.883 445.952 164.823C424.388 112.763 413.289 56.9648 413.289 0.615295L244.768 0.615845Z" fill="#5483D4"/>
<path d="M413.245 0.615417C413.245 56.9708 424.345 112.774 445.911 164.84C467.477 216.906 499.088 264.213 538.937 304.063C578.786 343.912 626.094 375.522 678.159 397.088C730.225 418.654 786.029 429.755 842.384 429.755L842.384 245.309C810.25 245.309 778.431 238.979 748.744 226.682C719.056 214.385 692.082 196.362 669.36 173.64C646.638 150.918 628.614 123.943 616.317 94.2556C604.02 64.5681 597.691 32.7491 597.691 0.615601L413.245 0.615417Z" fill="#1C468E"/>
<path d="M1440 843C1440 764.52 1424.54 686.809 1394.51 614.302C1364.48 541.796 1320.46 475.916 1264.96 420.422C1209.47 364.928 1143.59 320.908 1071.08 290.875C998.576 260.842 920.864 245.384 842.384 245.384L842.384 429.499C896.686 429.499 950.456 440.194 1000.62 460.975C1050.79 481.755 1096.38 512.214 1134.77 550.611C1173.17 589.008 1203.63 634.592 1224.41 684.76C1245.19 734.928 1255.89 788.698 1255.89 843H1440Z" fill="#1C468E"/>
</g>
</svg>
