<svg width="25" height="24" viewBox="0 0 25 24" fill="none" xmlns="http://www.w3.org/2000/svg">
<path d="M2.97656 12.6094H19.9766" stroke="#5D57BA" stroke-width="1.5" stroke-linecap="round" stroke-linejoin="round"/>
<path d="M19.9766 10.2808V17.4308C19.9466 20.2808 19.1666 21.0008 16.1966 21.0008H6.75656C3.73656 21.0008 2.97656 20.2508 2.97656 17.2708V10.2808C2.97656 7.58078 3.60656 6.71078 5.97656 6.57078C6.21656 6.56078 6.47656 6.55078 6.75656 6.55078H16.1966C19.2166 6.55078 19.9766 7.30078 19.9766 10.2808Z" stroke="#5D57BA" stroke-width="1.5" stroke-linecap="round" stroke-linejoin="round"/>
<path d="M22.9766 6.73V13.72C22.9766 16.42 22.3466 17.29 19.9766 17.43V10.28C19.9766 7.3 19.2166 6.55 16.1966 6.55H6.75656C6.47656 6.55 6.21656 6.56 5.97656 6.57C6.00656 3.72 6.78656 3 9.75656 3H19.1966C22.2166 3 22.9766 3.75 22.9766 6.73Z" stroke="#5D57BA" stroke-width="1.5" stroke-linecap="round" stroke-linejoin="round"/>
<path d="M6.22852 17.8105H7.94852" stroke="#5D57BA" stroke-width="1.5" stroke-linecap="round" stroke-linejoin="round"/>
<path d="M10.0898 17.8105H13.5298" stroke="#5D57BA" stroke-width="1.5" stroke-linecap="round" stroke-linejoin="round"/>
</svg>
