<svg width="48" height="48" viewBox="0 0 48 48" fill="none" xmlns="http://www.w3.org/2000/svg">
<path id="Vector" d="M23.9997 45.6666C28.2849 45.6666 32.474 44.3959 36.037 42.0151C39.6001 39.6343 42.3772 36.2505 44.0171 32.2914C45.657 28.3323 46.086 23.9759 45.25 19.773C44.414 15.5701 42.3505 11.7094 39.3203 8.67928C36.2902 5.64914 32.4296 3.58559 28.2266 2.74958C24.0237 1.91357 19.6673 2.34264 15.7082 3.98254C11.7491 5.62244 8.36526 8.39951 5.9845 11.9626C3.60374 15.5256 2.33301 19.7147 2.33301 23.9999C2.34959 29.7412 4.63764 35.2426 8.69734 39.3023C12.757 43.362 18.2584 45.65 23.9997 45.6666V45.6666Z" stroke="#EB3F25" stroke-width="3.25" stroke-linecap="round" stroke-linejoin="round"/>
</svg>
