<svg width="52" height="52" viewBox="0 0 52 52" fill="none" xmlns="http://www.w3.org/2000/svg">
<path d="M25.9997 47.6668C30.2849 47.6668 34.474 46.3961 38.037 44.0153C41.6001 41.6346 44.3772 38.2507 46.0171 34.2916C47.657 30.3326 48.086 25.9761 47.25 21.7732C46.414 17.5703 44.3505 13.7097 41.3203 10.6795C38.2902 7.64939 34.4296 5.58584 30.2266 4.74982C26.0237 3.91381 21.6673 4.34288 17.7082 5.98278C13.7491 7.62268 10.3653 10.3998 7.9845 13.9628C5.60374 17.5259 4.33301 21.7149 4.33301 26.0002C4.34959 31.7414 6.63764 37.2428 10.6973 41.3025C14.757 45.3622 20.2584 47.6503 25.9997 47.6668V47.6668Z" stroke="#EB3F25" stroke-width="3.25" stroke-linecap="round" stroke-linejoin="round"/>
<path d="M19.9999 33L33 20" stroke="#EB3F25" stroke-width="3.25" stroke-linecap="round" stroke-linejoin="round"/>
<path d="M33 33.0001L20 20" stroke="#EB3F25" stroke-width="3.25" stroke-linecap="round" stroke-linejoin="round"/>
</svg>
