<svg width="25" height="24" viewBox="0 0 25 24" fill="none" xmlns="http://www.w3.org/2000/svg">
<g id="delete">
<g id="trash">
<path id="Vector" d="M21.25 5.98047C17.92 5.65047 14.57 5.48047 11.23 5.48047C9.24622 5.48066 7.26371 5.58079 5.29 5.78047L3.25 5.98047" stroke="#E63312" stroke-width="1.5" stroke-linecap="round" stroke-linejoin="round"/>
<path id="Vector_2" d="M8.75 4.97L8.97 3.66C9.13 2.71 9.25 2 10.94 2H13.56C15.25 2 15.38 2.75 15.53 3.67L15.75 4.97" stroke="#E63312" stroke-width="1.5" stroke-linecap="round" stroke-linejoin="round"/>
<path id="Vector_3" d="M19.0984 9.14062L18.4484 19.2106C18.3384 20.7806 18.2484 22.0006 15.4584 22.0006H9.03844C6.24844 22.0006 6.15844 20.7806 6.04844 19.2106L5.39844 9.14062" stroke="#E63312" stroke-width="1.5" stroke-linecap="round" stroke-linejoin="round"/>
<path id="Vector_4" d="M10.5781 16.5H13.9081" stroke="#E63312" stroke-width="1.5" stroke-linecap="round" stroke-linejoin="round"/>
<path id="Vector_5" d="M9.75 12.5H14.75" stroke="#E63312" stroke-width="1.5" stroke-linecap="round" stroke-linejoin="round"/>
</g>
</g>
</svg>
