<svg width="52" height="52" viewBox="0 0 52 52" fill="none" xmlns="http://www.w3.org/2000/svg">
<g id="directbox-send">
<path id="Vector" d="M25.9993 17.3333V4.33325L21.666 8.66659" stroke="#385723" stroke-width="3.25" stroke-linecap="round" stroke-linejoin="round"/>
<path id="Vector_2" d="M26 4.33325L30.3333 8.66659" stroke="#385723" stroke-width="3.25" stroke-linecap="round" stroke-linejoin="round"/>
<path id="Vector_3" d="M15.1667 25.9998C6.5 25.9998 6.5 29.8781 6.5 34.6665V36.8331C6.5 42.8131 6.5 47.6665 17.3333 47.6665H34.6667C43.3333 47.6665 45.5 42.8131 45.5 36.8331V34.6665C45.5 29.8781 45.5 25.9998 36.8333 25.9998C36.1287 25.935 35.4183 26.017 34.747 26.2408C34.0757 26.4645 33.4581 26.8251 32.9333 27.2998L30.7233 29.6398C30.1156 30.2858 29.382 30.8006 28.5679 31.1524C27.7537 31.5043 26.8761 31.6858 25.9892 31.6858C25.1022 31.6858 24.2246 31.5043 23.4105 31.1524C22.5963 30.8006 21.8628 30.2858 21.255 29.6398L19.0667 27.2998C18.5419 26.8251 17.9243 26.4645 17.253 26.2408C16.5817 26.017 15.8713 25.935 15.1667 25.9998V25.9998Z" stroke="#385723" stroke-width="3.25" stroke-linecap="round" stroke-linejoin="round"/>
<path id="Vector_4" d="M10.834 26V21.6667C10.834 17.3117 10.834 13.715 17.334 13.0867" stroke="#385723" stroke-width="3.25" stroke-linecap="round" stroke-linejoin="round"/>
<path id="Vector_5" d="M41.166 26V21.6667C41.166 17.3117 41.166 13.715 34.666 13.0867" stroke="#385723" stroke-width="3.25" stroke-linecap="round" stroke-linejoin="round"/>
</g>
</svg>
