<svg width="44" height="44" viewBox="0 0 44 44" fill="none" xmlns="http://www.w3.org/2000/svg">
<path d="M21 12H19C14 12 12 14 12 19V25C12 30 14 32 19 32H25C30 32 32 30 32 25V23" stroke="#1C468E" stroke-width="1.5" stroke-linecap="round" stroke-linejoin="round"/>
<path d="M26.0433 13.0193L18.1633 20.8993C17.8255 21.2698 17.597 21.7267 17.5033 22.2193L17.0733 25.2293C17.021 25.4633 17.0287 25.7067 17.0957 25.937C17.1626 26.1672 17.2866 26.3768 17.4561 26.5464C17.6257 26.7159 17.8353 26.8399 18.0656 26.9069C18.2958 26.9738 18.5392 26.9815 18.7733 26.9293L21.7833 26.4993C22.2744 26.4013 22.7302 26.1734 23.1033 25.8393L30.9833 17.9593C32.3433 16.5993 32.9833 15.0193 30.9833 13.0193C28.9833 11.0193 27.4033 11.6593 26.0433 13.0193Z" stroke="#1C468E" stroke-width="1.5" stroke-linecap="round" stroke-linejoin="round"/>
<path d="M24.9062 14.1504C25.2378 15.3279 25.8662 16.4005 26.7312 17.2654C27.5962 18.1304 28.6688 18.7588 29.8463 19.0904" stroke="#1C468E" stroke-width="1.5" stroke-linecap="round" stroke-linejoin="round"/>
</svg>
