<svg width="24" height="24" viewBox="0 0 24 24" fill="none" xmlns="http://www.w3.org/2000/svg">
<g id="export">
<path id="Vector" d="M9.32031 6.50043L11.8803 3.94043L14.4403 6.50043" stroke="white" stroke-width="1.5" stroke-linecap="round" stroke-linejoin="round"/>
<path id="Vector_2" d="M11.8799 14.1798V4.00977" stroke="white" stroke-width="1.5" stroke-linecap="round" stroke-linejoin="round"/>
<path id="Vector_3" d="M3.99956 12C3.94982 13.0638 4.1227 14.1262 4.50714 15.1193C4.89158 16.1125 5.47911 17.0144 6.23214 17.7674C6.98516 18.5204 7.88709 19.108 8.88022 19.4924C9.87334 19.8769 10.9358 20.0497 11.9996 20C13.0633 20.0497 14.1258 19.8769 15.1189 19.4924C16.112 19.108 17.014 18.5204 17.767 17.7674C18.52 17.0144 19.1075 16.1125 19.492 15.1193C19.8764 14.1262 20.0493 13.0638 19.9996 12" stroke="white" stroke-width="1.5" stroke-linecap="round" stroke-linejoin="round"/>
</g>
</svg>
