<svg width="52" height="52" viewBox="0 0 52 52" fill="none" xmlns="http://www.w3.org/2000/svg">
<path d="M26.0007 47.6667C30.2859 47.6667 34.4749 46.396 38.038 44.0152C41.6011 41.6345 44.3781 38.2506 46.018 34.2915C47.6579 30.3325 48.087 25.976 47.251 21.7731C46.415 17.5702 44.3514 13.7095 41.3213 10.6794C38.2912 7.64927 34.4305 5.58572 30.2276 4.7497C26.0247 3.91369 21.6682 4.34276 17.7092 5.98266C13.7501 7.62256 10.3662 10.3996 7.98548 13.9627C5.60471 17.5258 4.33398 21.7148 4.33398 26.0001C4.35056 31.7413 6.63862 37.2427 10.6983 41.3024C14.758 45.3621 20.2594 47.6501 26.0007 47.6667V47.6667Z" stroke="#E63312" stroke-width="3.25" stroke-linecap="round" stroke-linejoin="round"/>
<path d="M26 15.1666V26" stroke="#E63312" stroke-width="3.25" stroke-linecap="round" stroke-linejoin="round"/>
<path d="M25.9883 34.6666H26.0078" stroke="#E63312" stroke-width="4.33333" stroke-linecap="round" stroke-linejoin="round"/>
</svg>
