<svg width="19" height="19" viewBox="0 0 19 19" fill="none" xmlns="http://www.w3.org/2000/svg">
<path d="M9.50065 17.4166C11.0664 17.4166 12.597 16.9523 13.8989 16.0825C15.2008 15.2126 16.2155 13.9761 16.8147 12.5296C17.4139 11.083 17.5707 9.4912 17.2652 7.95552C16.9597 6.41984 16.2057 5.00922 15.0986 3.90205C13.9914 2.79489 12.5808 2.0409 11.0451 1.73543C9.50943 1.42997 7.91766 1.58674 6.47107 2.18594C5.02449 2.78513 3.78808 3.79983 2.91818 5.10172C2.04829 6.40361 1.58398 7.93421 1.58398 9.49998C1.59004 11.5978 2.42606 13.6079 3.90941 15.0912C5.39277 16.5746 7.40288 17.4106 9.50065 17.4166V17.4166Z" stroke="#1D1D1B" stroke-width="1.5" stroke-linecap="round" stroke-linejoin="round"/>
<path d="M9.5 12.6667L9.5 8.70835" stroke="#1D1D1B" stroke-width="1.5" stroke-linecap="round" stroke-linejoin="round"/>
<path d="M9.50391 6.33331L9.49678 6.33331" stroke="#1D1D1B" stroke-width="2" stroke-linecap="round" stroke-linejoin="round"/>
</svg>
