<svg width="314" height="314" viewBox="0 0 314 314" fill="none" xmlns="http://www.w3.org/2000/svg">
<path d="M36.7375 314C36.7375 301.711 39.1579 289.543 43.8605 278.19C48.5631 266.837 55.4559 256.521 64.1453 247.832C72.8346 239.142 83.1503 232.25 94.5035 227.547C105.857 222.844 118.025 220.424 130.314 220.424L130.314 260.643C123.307 260.643 116.368 262.023 109.895 264.705C103.421 267.386 97.5393 271.316 92.5847 276.271C87.6301 281.226 83.6999 287.108 81.0184 293.581C78.337 300.055 76.9569 306.993 76.9569 314L36.7375 314Z" fill="#EEF7EB"/>
<path d="M260.627 130.313C260.627 137.322 262.007 144.263 264.69 150.738C267.372 157.214 271.303 163.098 276.259 168.054C281.216 173.01 287.099 176.942 293.575 179.624C300.05 182.306 306.991 183.687 314 183.687L314 130.313L260.627 130.313Z" fill="#EEF7EB"/>
<path d="M76.9406 314C76.9406 306.991 78.3211 300.05 81.0034 293.575C83.6856 287.099 87.617 281.216 92.5732 276.259C97.5293 271.303 103.413 267.372 109.889 264.69C116.364 262.007 123.305 260.627 130.314 260.627L130.314 314L76.9406 314Z" fill="#FFCD1C"/>
<path d="M183.687 314C183.687 306.991 182.306 300.05 179.624 293.575C176.942 287.099 173.01 281.216 168.054 276.259C163.098 271.303 157.214 267.372 150.739 264.69C144.263 262.007 137.323 260.627 130.314 260.627L130.314 314L183.687 314Z" fill="#98DB82"/>
<path d="M183.687 130.314C183.687 113.201 187.057 96.255 193.606 80.4447C200.155 64.6343 209.754 50.2686 221.854 38.1679C233.955 26.0672 248.321 16.4684 264.131 9.91952C279.942 3.37066 296.887 7.48038e-07 314 0L314 41.2241C302.301 41.2241 290.716 43.5285 279.907 48.0057C269.098 52.4828 259.277 59.0451 251.004 67.3178C242.732 75.5905 236.169 85.4116 231.692 96.2204C227.215 107.029 224.911 118.614 224.911 130.313L183.687 130.314Z" fill="#98DB81"/>
<path d="M223.89 130.313C223.89 118.48 226.22 106.762 230.749 95.8296C235.277 84.8969 241.915 74.9632 250.282 66.5957C258.65 58.2282 268.584 51.5907 279.516 47.0623C290.449 42.5338 302.167 40.203 314 40.203L314 76.8447C306.978 76.8447 300.026 78.2277 293.538 80.9148C287.051 83.6018 281.157 87.5403 276.192 92.5053C271.227 97.4703 267.288 103.365 264.601 109.852C261.914 116.339 260.531 123.292 260.531 130.313L223.89 130.313Z" fill="#385723"/>
<path d="M314 220.424C302.167 220.424 290.449 218.093 279.516 213.564C268.584 209.036 258.65 202.399 250.282 194.031C241.915 185.664 235.277 175.73 230.749 164.797C226.22 153.864 223.89 142.147 223.89 130.313L260.763 130.313C260.763 137.305 262.14 144.227 264.815 150.686C267.491 157.145 271.412 163.014 276.356 167.958C281.299 172.901 287.168 176.823 293.627 179.498C300.086 182.174 307.009 183.551 314 183.551L314 220.424Z" fill="#98DB82"/>
<path d="M220.424 314C220.424 302.166 218.093 290.449 213.565 279.516C209.036 268.583 202.399 258.65 194.031 250.282C185.664 241.915 175.73 235.277 164.797 230.749C153.864 226.22 142.147 223.89 130.313 223.89L130.313 260.531C137.335 260.531 144.288 261.914 150.775 264.601C157.262 267.288 163.156 271.227 168.121 276.192C173.086 281.157 177.025 287.051 179.712 293.538C182.399 300.025 183.782 306.978 183.782 314L220.424 314Z" fill="#EEF7EB"/>
<path d="M40.2032 130.313C40.2032 142.147 42.5339 153.865 47.0624 164.797C51.5909 175.73 58.2283 185.664 66.5959 194.031C74.9634 202.399 84.8971 209.036 95.8298 213.565C106.762 218.093 118.48 220.424 130.314 220.424L130.313 183.782C123.292 183.782 116.339 182.399 109.852 179.712C103.365 177.025 97.4705 173.087 92.5055 168.122C87.5405 163.156 83.602 157.262 80.9149 150.775C78.2279 144.288 77 137.022 77 130L40.2032 130.313Z" fill="#FFCD1C"/>
<path d="M260.627 130.313C260.627 147.426 257.256 164.372 250.707 180.182C244.159 195.992 234.56 210.358 222.459 222.459C210.358 234.56 195.993 244.158 180.182 250.707C164.372 257.256 147.427 260.627 130.314 260.627L130.314 223.88C142.601 223.88 154.768 221.46 166.12 216.758C177.472 212.055 187.787 205.163 196.475 196.475C205.163 187.786 212.056 177.472 216.758 166.12C221.46 154.768 223.88 142.601 223.88 130.313L260.627 130.313Z" fill="#98DB81"/>
<path d="M223.89 130.313C223.89 142.602 221.469 154.77 216.767 166.123C212.064 177.477 205.171 187.792 196.482 196.482C187.793 205.171 177.477 212.064 166.124 216.766C154.77 221.469 142.602 223.89 130.313 223.89L130.314 183.67C137.32 183.67 144.259 182.29 150.732 179.609C157.206 176.927 163.088 172.997 168.042 168.042C172.997 163.088 176.927 157.206 179.609 150.732C182.29 144.259 183.67 137.32 183.67 130.313L223.89 130.313Z" fill="#385723"/>
<path d="M2.74508e-05 314C2.59547e-05 296.887 3.37069 279.942 9.91955 264.131C16.4684 248.321 26.0673 233.955 38.168 221.855C50.2687 209.754 64.6343 200.155 80.4447 193.606C96.255 187.057 113.201 183.687 130.314 183.687L130.313 223.834C118.473 223.834 106.748 226.166 95.8083 230.697C84.8689 235.229 74.929 241.87 66.5563 250.243C58.1836 258.616 51.542 268.555 47.0107 279.495C42.4795 290.434 40.1473 302.159 40.1473 314L2.74508e-05 314Z" fill="#385723"/>
</svg>
