<svg width="53" height="52" viewBox="0 0 53 52" fill="none" xmlns="http://www.w3.org/2000/svg">
<path d="M26.5007 47.6664C30.7859 47.6664 34.9749 46.3956 38.538 44.0149C42.1011 41.6341 44.8781 38.2502 46.518 34.2912C48.1579 30.3321 48.587 25.9757 47.751 21.7727C46.915 17.5698 44.8514 13.7092 41.8213 10.679C38.7912 7.6489 34.9305 5.58535 30.7276 4.74934C26.5247 3.91332 22.1682 4.3424 18.2092 5.98229C14.2501 7.62219 10.8662 10.3993 8.48548 13.9623C6.10471 17.5254 4.83398 21.7144 4.83398 25.9997C4.85056 31.7409 7.13862 37.2423 11.1983 41.302C15.258 45.3617 20.7594 47.6498 26.5007 47.6664V47.6664Z" stroke="#1C468E" stroke-width="3.25" stroke-linecap="round" stroke-linejoin="round"/>
<path d="M17.291 25.9998L23.4227 32.1315L35.7077 19.8682" stroke="#1C468E" stroke-width="3.25" stroke-linecap="round" stroke-linejoin="round"/>
</svg>
