<svg width="24" height="24" viewBox="0 0 24 24" fill="none" xmlns="http://www.w3.org/2000/svg">
<path d="M21.9701 18.33C21.9686 18.7074 21.8832 19.0797 21.7201 19.42C21.5455 19.792 21.3163 20.1358 21.0401 20.44C20.5898 20.9524 20.029 21.3558 19.4001 21.62C18.7819 21.8753 18.1189 22.0045 17.4501 22C16.3253 21.9792 15.2164 21.7309 14.1901 21.27C12.9723 20.7421 11.8183 20.0779 10.7501 19.29C9.58822 18.4401 8.4918 17.5041 7.47011 16.49C6.45888 15.472 5.52621 14.3789 4.68011 13.22C3.90301 12.1591 3.24568 11.0155 2.72011 9.81001C2.2637 8.77918 2.01886 7.66721 2.00011 6.54001C1.99581 5.8796 2.11801 5.22447 2.36011 4.61001C2.61446 3.97474 3.00733 3.40421 3.51011 2.94001C3.77628 2.65214 4.09753 2.42061 4.45481 2.25914C4.81209 2.09768 5.19815 2.00956 5.59011 2.00001C5.87015 1.9989 6.1469 2.0604 6.40011 2.18001C6.67022 2.30227 6.90186 2.49589 7.07011 2.74001L9.39011 6.01002C9.55056 6.22677 9.68482 6.46174 9.79011 6.71001C9.87696 6.90199 9.92456 7.10938 9.93011 7.32001C9.92728 7.57157 9.85457 7.81739 9.72011 8.03001C9.56589 8.29056 9.37756 8.52934 9.16011 8.74001L8.40011 9.53001C8.34717 9.58196 8.30561 9.64434 8.27807 9.7132C8.25052 9.78206 8.2376 9.85589 8.24011 9.93001C8.24024 10.0076 8.25032 10.0849 8.27011 10.16C8.30011 10.24 8.33011 10.3 8.35011 10.36C8.61864 10.8153 8.93006 11.2439 9.28011 11.64C9.73011 12.16 10.2101 12.69 10.7301 13.22C11.2701 13.75 11.7901 14.24 12.3201 14.69C12.7172 15.0404 13.1495 15.3487 13.6101 15.61C13.6601 15.63 13.7201 15.66 13.7901 15.69C13.8703 15.7187 13.955 15.7322 14.0401 15.73C14.1165 15.7317 14.1924 15.7175 14.263 15.6882C14.3336 15.6589 14.3973 15.6153 14.4501 15.56L15.2101 14.81C15.4209 14.5885 15.6635 14.3998 15.9301 14.25C16.1422 14.1143 16.3884 14.0415 16.6401 14.04C16.85 14.0429 17.0573 14.0871 17.2501 14.17C17.4963 14.2754 17.7309 14.4061 17.9501 14.56L21.2601 16.91C21.5003 17.067 21.691 17.289 21.8101 17.55C21.9139 17.7971 21.9682 18.0621 21.9701 18.33Z" fill="#EEF7EB" stroke="#54B749" stroke-width="1.5"/>
</svg>
