<svg width="56" height="56" viewBox="0 0 56 56" fill="none" xmlns="http://www.w3.org/2000/svg">
<path d="M28.0007 18.6665V4.6665L23.334 9.33317" stroke="#1C468E" stroke-width="3" stroke-linecap="round" stroke-linejoin="round"/>
<path d="M28 4.6665L32.6667 9.33317" stroke="#1C468E" stroke-width="3" stroke-linecap="round" stroke-linejoin="round"/>
<path d="M16.3333 28.0002C7 28.0002 7 32.1769 7 37.3336V39.6669C7 46.1069 7 51.3336 18.6667 51.3336H37.3333C46.6667 51.3336 49 46.1069 49 39.6669V37.3336C49 32.1769 49 28.0002 39.6667 28.0002C38.9078 27.9304 38.1428 28.0188 37.4198 28.2598C36.6969 28.5007 36.0318 28.8891 35.4667 29.4002L33.0867 31.9202C32.4322 32.6159 31.6422 33.1703 30.7654 33.5492C29.8886 33.9282 28.9435 34.1237 27.9883 34.1237C27.0332 34.1237 26.0881 33.9282 25.2113 33.5492C24.3345 33.1703 23.5445 32.6159 22.89 31.9202L20.5333 29.4002C19.9682 28.8891 19.3031 28.5007 18.5802 28.2598C17.8572 28.0188 17.0922 27.9304 16.3333 28.0002V28.0002Z" stroke="#1C468E" stroke-width="3" stroke-linecap="round" stroke-linejoin="round"/>
<path d="M11.666 27.9999V23.3333C11.666 18.6433 11.666 14.7699 18.666 14.0933" stroke="#1C468E" stroke-width="3" stroke-linecap="round" stroke-linejoin="round"/>
<path d="M44.334 27.9999V23.3333C44.334 18.6433 44.334 14.7699 37.334 14.0933" stroke="#1C468E" stroke-width="3" stroke-linecap="round" stroke-linejoin="round"/>
</svg>
