<svg width="25" height="24" viewBox="0 0 25 24" fill="none" xmlns="http://www.w3.org/2000/svg">
<path d="M14.9746 5H20.9746" stroke="#54B749" stroke-width="1.5" stroke-linecap="round" stroke-linejoin="round"/>
<path d="M14.9746 8H17.9746" stroke="#54B749" stroke-width="1.5" stroke-linecap="round" stroke-linejoin="round"/>
<path d="M21.9746 11.5C21.9746 13.3789 21.4174 15.2156 20.3736 16.7779C19.3297 18.3402 17.846 19.5578 16.1101 20.2769C14.3742 20.9959 12.4641 21.184 10.6213 20.8175C8.77844 20.4509 7.0857 19.5461 5.7571 18.2175C4.4285 16.8889 3.52371 15.1962 3.15715 13.3534C2.79059 11.5105 2.97873 9.60041 3.69776 7.86451C4.41679 6.12861 5.63443 4.64491 7.1967 3.60104C8.75896 2.55717 10.5957 2 12.4746 2" stroke="#54B749" stroke-width="1.5" stroke-linecap="round" stroke-linejoin="round"/>
<path d="M22.9746 22L20.9746 20" stroke="#54B749" stroke-width="1.5" stroke-linecap="round" stroke-linejoin="round"/>
</svg>
