<svg width="24" height="24" viewBox="0 0 24 24" fill="none" xmlns="http://www.w3.org/2000/svg">
<g id="send">
<g id="directbox-send">
<path id="Vector" d="M11.9992 2V8L10.0068 6" stroke="#1D1D1B" stroke-width="1.5" stroke-linecap="round" stroke-linejoin="round"/>
<path id="Vector_2" d="M11.999 8L13.9914 6" stroke="#1D1D1B" stroke-width="1.5" stroke-linecap="round" stroke-linejoin="round"/>
<path id="Vector_3" d="M7.02277 12.0002C3.03809 12.0002 3.03809 13.7902 3.03809 16.0002V17.0002C3.03809 19.7602 3.03809 22.0002 8.01895 22.0002H15.9883C19.973 22.0002 20.9692 19.7602 20.9692 17.0002V16.0002C20.9692 13.7902 20.9692 12.0002 16.9845 12.0002C16.6605 11.9702 16.3339 12.0081 16.0253 12.1114C15.7166 12.2147 15.4327 12.3811 15.1914 12.6002L14.1753 13.6802C13.8959 13.9783 13.5586 14.2159 13.1843 14.3783C12.8099 14.5407 12.4065 14.6245 11.9987 14.6245C11.5909 14.6245 11.1874 14.5407 10.813 14.3783C10.4387 14.2159 10.1015 13.9783 9.82202 13.6802L8.81589 12.6002C8.57459 12.3811 8.29065 12.2147 7.98201 12.1114C7.67337 12.0081 7.34674 11.9702 7.02277 12.0002V12.0002Z" stroke="#1D1D1B" stroke-width="1.5" stroke-linecap="round" stroke-linejoin="round"/>
<path id="Vector_4" d="M5.03027 12V10C5.03027 7.99004 5.03027 6.33004 8.01879 6.04004" stroke="#1D1D1B" stroke-width="1.5" stroke-linecap="round" stroke-linejoin="round"/>
<path id="Vector_5" d="M18.9719 12V10C18.9719 7.99004 18.9719 6.33004 15.9834 6.04004" stroke="#1D1D1B" stroke-width="1.5" stroke-linecap="round" stroke-linejoin="round"/>
</g>
</g>
</svg>
