<svg width="24" height="24" viewBox="0 0 24 24" fill="none" xmlns="http://www.w3.org/2000/svg">
<g id="shield-tick">
<path id="Vector" d="M10.4902 2.22956L5.50016 4.10956C4.90576 4.3662 4.39502 4.78401 4.02568 5.31576C3.65634 5.8475 3.44313 6.47197 3.41016 7.11856V14.5486C3.44909 15.2095 3.62262 15.8556 3.9201 16.4471C4.21759 17.0387 4.63276 17.5632 5.14016 17.9886L9.44016 21.1986C10.1972 21.7164 11.093 21.9935 12.0102 21.9935C12.9273 21.9935 13.8231 21.7164 14.5802 21.1986L18.8802 17.9886C19.3876 17.5632 19.8027 17.0387 20.1002 16.4471C20.3977 15.8556 20.5712 15.2095 20.6102 14.5486V7.11856C20.5793 6.46978 20.3671 5.84264 19.9977 5.30844C19.6282 4.77423 19.1163 4.35437 18.5202 4.09656L13.5302 2.22956C12.5405 1.91957 11.4798 1.91957 10.4902 2.22956V2.22956Z" stroke="white" stroke-width="1.5" stroke-linecap="round" stroke-linejoin="round"/>
<path id="Vector_2" d="M9.05078 11.8697L10.6608 13.4797L14.9608 9.17969" stroke="white" stroke-width="1.5" stroke-linecap="round" stroke-linejoin="round"/>
</g>
</svg>
