<svg width="24" height="24" viewBox="0 0 52 52" fill="none" xmlns="http://www.w3.org/2000/svg">
<g id="trash">
<path id="Vector" d="M45.5 12.9566C38.285 12.2416 31.0267 11.8733 23.79 11.8733C19.4918 11.8737 15.1964 12.0906 10.92 12.5233L6.5 12.9566" stroke="#E63312" stroke-width="3.25" stroke-linecap="round" stroke-linejoin="round"/>
<path id="Vector_2" d="M18.417 10.7683L18.8937 7.92992C19.2403 5.87159 19.5003 4.33325 23.162 4.33325H28.8387C32.5003 4.33325 32.782 5.95825 33.107 7.95159L33.5837 10.7683" stroke="#E63312" stroke-width="3.25" stroke-linecap="round" stroke-linejoin="round"/>
<path id="Vector_3" d="M40.8425 19.8037L39.4342 41.622C39.1958 45.0237 39.0008 47.667 32.9558 47.667H19.0458C13.0008 47.667 12.8058 45.0237 12.5675 41.622L11.1592 19.8037" stroke="#E63312" stroke-width="3.25" stroke-linecap="round" stroke-linejoin="round"/>
<path id="Vector_4" d="M22.3818 35.75H29.5968" stroke="#E63312" stroke-width="3.25" stroke-linecap="round" stroke-linejoin="round"/>
<path id="Vector_5" d="M20.583 27.0833H31.4163" stroke="#E63312" stroke-width="3.25" stroke-linecap="round" stroke-linejoin="round"/>
</g>
</svg>
