<svg width="25" height="24" viewBox="0 0 25 24" fill="none" xmlns="http://www.w3.org/2000/svg">
<path d="M17.9805 7C17.9805 7.98891 17.6872 8.95561 17.1378 9.77785C16.5884 10.6001 15.8075 11.241 14.8939 11.6194C13.9803 11.9978 12.9749 12.0969 12.005 11.9039C11.0351 11.711 10.1442 11.2348 9.44494 10.5355C8.74567 9.83627 8.26947 8.94536 8.07654 7.97545C7.88362 7.00555 7.98264 6.00021 8.36107 5.08658C8.73951 4.17295 9.38037 3.39206 10.2026 2.84265C11.0249 2.29324 11.9916 2 12.9805 2C14.3066 2 15.5783 2.52678 16.516 3.46447C17.4537 4.40215 17.9805 5.67392 17.9805 7Z" stroke="#D82B75" stroke-width="1.5" stroke-linecap="round" stroke-linejoin="round"/>
<path d="M4.38867 22C4.38867 18.13 8.23867 15 12.9787 15" stroke="#D82B75" stroke-width="1.5" stroke-linecap="round" stroke-linejoin="round"/>
<path d="M22.3785 18.2C22.3785 18.8329 22.1908 19.4516 21.8392 19.9778C21.4876 20.5041 20.9878 20.9142 20.4031 21.1564C19.8184 21.3986 19.175 21.462 18.5542 21.3385C17.9335 21.215 17.3633 20.9103 16.9158 20.4627C16.4682 20.0152 16.1635 19.445 16.04 18.8243C15.9165 18.2035 15.9799 17.5601 16.2221 16.9754C16.4643 16.3907 16.8745 15.8909 17.4007 15.5393C17.9269 15.1877 18.5456 15 19.1785 15C20.0272 15 20.8411 15.3371 21.4413 15.9373C22.0414 16.5374 22.3785 17.3513 22.3785 18.2Z" stroke="#D82B75" stroke-width="1.5" stroke-linecap="round" stroke-linejoin="round"/>
<path d="M22.9785 22L21.9785 21" stroke="#D82B75" stroke-width="1.5" stroke-linecap="round" stroke-linejoin="round"/>
</svg>
