<svg width="717" height="717" viewBox="0 0 717 717" fill="none" xmlns="http://www.w3.org/2000/svg">
<g opacity="0.05">
<path d="M717 297.563H297.563V717H717V297.563Z" fill="#385723"/>
<path d="M83.8878 717C83.8878 688.94 89.4145 661.154 100.153 635.23C110.891 609.305 126.63 585.75 146.472 565.908C166.313 546.067 189.869 530.328 215.793 519.589C241.717 508.851 269.503 503.324 297.563 503.324V595.163C281.563 595.163 265.72 598.314 250.938 604.437C236.156 610.56 222.725 619.535 211.411 630.848C200.098 642.162 191.123 655.593 185.001 670.375C178.878 685.157 175.726 701 175.726 717H83.8878Z" fill="#EEF7EB"/>
<path d="M595.126 297.563C595.126 313.568 598.278 329.416 604.403 344.202C610.528 358.989 619.505 372.424 630.822 383.741C642.139 395.058 655.574 404.035 670.361 410.16C685.147 416.285 700.995 419.437 717 419.437L717 297.563L595.126 297.563Z" fill="#EEF7EB"/>
<path d="M297.563 297.563C281.558 297.563 265.71 294.411 250.924 288.286C236.137 282.161 222.702 273.184 211.385 261.867C200.068 250.55 191.091 237.114 184.966 222.328C178.841 207.542 175.689 191.693 175.689 175.689H297.563L297.563 297.563Z" fill="#FFCD1C"/>
<path d="M297.563 297.563C313.568 297.563 329.416 294.411 344.202 288.286C358.989 282.161 372.424 273.184 383.741 261.867C395.058 250.55 404.035 237.114 410.16 222.328C416.285 207.542 419.437 191.693 419.437 175.689H297.563L297.563 297.563Z" fill="#385723"/>
<path d="M175.689 717C175.689 700.995 178.841 685.147 184.966 670.36C191.091 655.574 200.068 642.139 211.385 630.822C222.702 619.505 236.138 610.527 250.924 604.403C265.71 598.278 281.558 595.125 297.563 595.125L297.563 717L175.689 717Z" fill="#FFCD1C"/>
<path d="M419.437 717C419.437 700.995 416.285 685.147 410.16 670.36C404.035 655.574 395.058 642.139 383.741 630.822C372.424 619.505 358.989 610.527 344.202 604.403C329.416 598.278 313.568 595.125 297.563 595.125L297.563 717L419.437 717Z" fill="#98DB82"/>
<path d="M419.437 297.563C419.437 313.568 416.285 329.416 410.16 344.202C404.035 358.989 395.058 372.424 383.741 383.741C372.424 395.058 358.989 404.035 344.202 410.16C329.416 416.285 313.568 419.437 297.563 419.437L297.563 297.563L419.437 297.563Z" fill="#52AE32"/>
<path d="M419.437 297.563C419.437 258.487 427.134 219.792 442.088 183.69C457.042 147.588 478.96 114.785 506.591 87.1541C534.222 59.5229 567.026 37.6045 603.128 22.6506C639.229 7.69669 677.923 -1.70809e-06 717 0L717 94.1328C690.285 94.1328 663.832 99.3947 639.151 109.618C614.469 119.841 592.043 134.826 573.153 153.716C554.263 172.606 539.278 195.032 529.055 219.714C518.832 244.395 513.57 270.848 513.57 297.563L419.437 297.563Z" fill="#98DB81"/>
<path d="M511.239 297.563C511.239 270.542 516.561 243.785 526.901 218.821C537.242 193.857 552.398 171.174 571.505 152.067C590.611 132.961 613.294 117.804 638.258 107.464C663.223 97.1233 689.979 91.8011 717 91.8011L717 175.47C700.967 175.47 685.09 178.628 670.277 184.764C655.464 190.9 642.005 199.893 630.668 211.23C619.33 222.568 610.337 236.027 604.201 250.84C598.066 265.653 594.908 281.529 594.908 297.563H511.239Z" fill="#385723"/>
<path d="M717 503.324C689.979 503.324 663.223 498.002 638.258 487.662C613.294 477.321 590.611 462.165 571.505 443.058C552.398 423.951 537.242 401.268 526.901 376.304C516.561 351.34 511.239 324.584 511.239 297.563H595.436C595.436 313.527 598.58 329.334 604.69 344.083C610.799 358.832 619.753 372.233 631.041 383.521C642.33 394.81 655.731 403.764 670.479 409.873C685.228 415.982 701.036 419.127 717 419.127L717 503.324Z" fill="#98DB82"/>
<path d="M503.324 717C503.324 689.979 498.002 663.222 487.662 638.258C477.321 613.294 462.165 590.611 443.058 571.504C423.951 552.398 401.268 537.241 376.304 526.901C351.34 516.56 324.584 511.238 297.563 511.238V594.907C313.596 594.907 329.473 598.065 344.285 604.201C359.098 610.337 372.558 619.33 383.895 630.667C395.232 642.005 404.226 655.464 410.361 670.277C416.497 685.09 419.655 700.966 419.655 717H503.324Z" fill="#EEF7EB"/>
<path d="M175.689 297.563C175.689 313.568 178.841 329.416 184.966 344.202C191.091 358.989 200.068 372.424 211.385 383.741C222.702 395.058 236.138 404.035 250.924 410.16C265.71 416.285 281.558 419.437 297.563 419.437L297.563 297.563L175.689 297.563Z" fill="#98DB82"/>
<path d="M91.8015 297.563C91.8015 324.584 97.1237 351.34 107.464 376.304C117.805 401.269 132.961 423.952 152.068 443.058C171.174 462.165 193.857 477.321 218.821 487.662C243.786 498.002 270.542 503.324 297.563 503.324L297.563 419.655C281.53 419.655 265.653 416.497 250.84 410.362C236.027 404.226 222.568 395.233 211.231 383.895C199.893 372.558 190.9 359.099 184.764 344.286C178.629 329.473 175.471 313.596 175.471 297.563H91.8015Z" fill="#FFCD1C"/>
<path d="M595.126 297.563C595.126 336.639 587.429 375.333 572.475 411.435C557.521 447.537 535.603 480.34 507.972 507.971C480.34 535.603 447.537 557.521 411.435 572.475C375.333 587.429 336.64 595.125 297.563 595.125L297.563 511.216C325.62 511.216 353.403 505.69 379.325 494.953C405.246 484.216 428.799 468.478 448.639 448.638C468.478 428.799 484.216 405.246 494.953 379.324C505.69 353.403 511.216 325.62 511.216 297.563L595.126 297.563Z" fill="#98DB81"/>
<path d="M511.239 297.563C511.239 325.623 505.712 353.409 494.973 379.333C484.235 405.257 468.496 428.812 448.654 448.654C428.813 468.496 405.257 484.235 379.333 494.973C353.409 505.711 325.623 511.238 297.563 511.238L297.563 419.4C313.563 419.4 329.406 416.248 344.188 410.125C358.97 404.002 372.401 395.028 383.715 383.714C395.028 372.401 404.003 358.97 410.126 344.188C416.248 329.406 419.4 313.563 419.4 297.563L511.239 297.563Z" fill="#385723"/>
<path d="M0 717C0 677.923 7.69672 639.23 22.6506 603.128C37.6046 567.026 59.5229 534.223 87.1542 506.591C114.785 478.96 147.588 457.042 183.69 442.088C219.792 427.134 258.487 419.437 297.563 419.437L297.563 511.111C270.525 511.111 243.752 516.436 218.772 526.783C193.793 537.13 171.096 552.296 151.977 571.414C132.859 590.533 117.693 613.23 107.346 638.21C96.9993 663.189 91.6738 689.962 91.6738 717H0Z" fill="#385723"/>
</g>
</svg>
